<svg xmlns="http://www.w3.org/2000/svg" width="8.84" height="17" viewBox="0 0 8.84 17">
  <metadata><?xpacket begin="﻿" id="W5M0MpCehiHzreSzNTczkc9d"?>
<x:xmpmeta xmlns:x="adobe:ns:meta/" x:xmptk="Adobe XMP Core 5.6-c138 79.159824, 2016/09/14-01:09:01        ">
   <rdf:RDF xmlns:rdf="http://www.w3.org/1999/02/22-rdf-syntax-ns#">
      <rdf:Description rdf:about=""/>
   </rdf:RDF>
</x:xmpmeta>
                                                                                                    
                                                                                                    
                                                                                                    
                                                                                                    
                                                                                                    
                                                                                                    
                                                                                                    
                                                                                                    
                                                                                                    
                                                                                                    
                                                                                                    
                                                                                                    
                                                                                                    
                                                                                                    
                                                                                                    
                                                                                                    
                                                                                                    
                                                                                                    
                                                                                                    
                                                                                                    
                           
<?xpacket end="w"?></metadata>
<defs>
    <style>
      .cls-1 {
        fill: #fff9c4;
        fill-rule: evenodd;
      }
    </style>
  </defs>
  <path class="cls-1" d="M1119.49,3956.22a0.96,0.96,0,0,1-1.38-.01l-2.75-2.81-2.76,2.81a0.952,0.952,0,0,1-1.38.01,1,1,0,0,1,0-1.41l3.44-3.52a0.987,0.987,0,0,1,.7-0.3,0.948,0.948,0,0,1,.69.3l3.44,3.52A1,1,0,0,1,1119.49,3956.22Zm-8.27,6.56a0.952,0.952,0,0,1,1.38,0l2.76,2.81,2.75-2.81a0.96,0.96,0,0,1,1.38,0,1,1,0,0,1,0,1.41l-3.44,3.52a0.978,0.978,0,0,1-.69.29,1.019,1.019,0,0,1-.7-0.29l-3.44-3.52A1,1,0,0,1,1111.22,3962.78Z" transform="translate(-1110.94 -3951)"/>
</svg>
