<?xml version="1.0" encoding="UTF-8"?>
<svg width="80px" height="66px" viewBox="0 0 80 66" version="1.1" xmlns="http://www.w3.org/2000/svg" xmlns:xlink="http://www.w3.org/1999/xlink">
    <!-- Generator: Sketch 43.1 (39012) - http://www.bohemiancoding.com/sketch -->
    <title>svg/006-graphic-1</title>
    <desc>Created with Sketch.</desc>
    <defs></defs>
    <g id="Макеты" stroke="none" stroke-width="1" fill="none" fill-rule="evenodd">
        <g id="volshebnij_ostrov_index_02" transform="translate(-98.000000, -1359.000000)" fill-rule="nonzero">
            <g id="Преимущества" transform="translate(49.000000, 1286.000000)">
                <g id="svg/006-graphic-1" transform="translate(49.000000, 73.000000)">
                    <g id="Capa_1">
                        <g id="XMLID_1446_">
                            <rect id="XMLID_1447_" fill="#FF5023" x="6.12244898" y="28.5714286" width="12.244898" height="28.5714286"></rect>
                            <rect id="XMLID_1448_" fill="#FF9811" x="6.12244898" y="14.2857143" width="12.244898" height="14.2857143"></rect>
                            <rect id="XMLID_1449_" fill="#FFDA44" x="6.12244898" y="0" width="12.244898" height="14.2857143"></rect>
                            <rect id="XMLID_1450_" fill="#FF5023" x="24.4897959" y="42.857551" width="12.244898" height="14.2853061"></rect>
                            <rect id="XMLID_1451_" fill="#FF9811" x="24.4897959" y="22.4489796" width="12.244898" height="20.4081633"></rect>
                            <rect id="XMLID_1452_" fill="#FFDA44" x="24.4897959" y="8.16326531" width="12.244898" height="14.2857143"></rect>
                            <rect id="XMLID_1453_" fill="#FF5023" x="42.8571429" y="36.7346939" width="12.244898" height="20.4081633"></rect>
                            <rect id="XMLID_1454_" fill="#FF9811" x="42.8571429" y="14.2857143" width="12.244898" height="22.4489796"></rect>
                            <rect id="XMLID_1455_" fill="#FFDA44" x="42.8571429" y="0" width="12.244898" height="14.2857143"></rect>
                            <rect id="XMLID_1456_" fill="#FF5023" x="61.2244898" y="42.857551" width="12.244898" height="14.2853061"></rect>
                            <rect id="XMLID_1457_" fill="#FF9811" x="61.2244898" y="28.5714286" width="12.244898" height="14.2857143"></rect>
                            <rect id="XMLID_1458_" fill="#FFDA44" x="61.2244898" y="8.16367347" width="12.244898" height="20.4077551"></rect>
                            <polygon id="XMLID_1459_" fill="#CDCDD0" points="36.7346939 57.1428571 24.4897959 57.1428571 18.3673469 57.1428571 6.12244898 57.1428571 0 57.1428571 0 65.3061224 39.7959184 65.3061224 39.7959184 57.1428571"></polygon>
                            <polygon id="XMLID_1460_" fill="#ACABB1" points="73.4693878 57.1428571 61.2244898 57.1428571 55.1020408 57.1428571 42.8571429 57.1428571 39.7959184 57.1428571 39.7959184 65.3061224 79.5918367 65.3061224 79.5918367 57.1428571"></polygon>
                        </g>
                    </g>
                </g>
            </g>
        </g>
    </g>
</svg>