<?xml version="1.0" encoding="UTF-8"?>
<svg width="64px" height="80px" viewBox="0 0 64 80" version="1.1" xmlns="http://www.w3.org/2000/svg" xmlns:xlink="http://www.w3.org/1999/xlink">
    <!-- Generator: Sketch 43.1 (39012) - http://www.bohemiancoding.com/sketch -->
    <title>svg/001-agenda</title>
    <desc>Created with Sketch.</desc>
    <defs></defs>
    <g id="Макеты" stroke="none" stroke-width="1" fill="none" fill-rule="evenodd">
        <g id="volshebnij_ostrov_index_02" transform="translate(-422.000000, -1349.000000)" fill-rule="nonzero">
            <g id="Преимущества" transform="translate(49.000000, 1286.000000)">
                <g id="svg/001-agenda" transform="translate(373.000000, 63.000000)">
                    <g id="Capa_1">
                        <g id="XMLID_807_">
                            <polygon id="XMLID_808_" fill="#DEDDE0" points="33.9141414 0 11.969697 0 11.969697 80 33.9141414 80"></polygon>
                            <polygon id="XMLID_809_" fill="#CDCDD0" points="55.8585859 40 55.8585859 20 55.8585859 0 33.9141414 0 33.9141414 79.9998 55.8585859 79.9998 55.8585859 60"></polygon>
                            <polygon id="XMLID_810_" fill="#ACABB1" points="3.98989899 0 3.98989899 7 7.97979798 7 7.97979798 13 3.98989899 13 3.98989899 27 7.97979798 27 7.97979798 33 3.98989899 33 3.98989899 47 7.97979798 47 7.97979798 53 3.98989899 53 3.98989899 67 7.97979798 67 7.97979798 73 3.98989899 73 3.98989899 80 11.969697 80 11.969697 0"></polygon>
                            <rect id="XMLID_811_" fill="#FFDA44" x="55.8585859" y="0" width="7.97979798" height="20"></rect>
                            <rect id="XMLID_812_" fill="#FF9811" x="55.8585859" y="20" width="7.97979798" height="20"></rect>
                            <rect id="XMLID_813_" fill="#FF5023" x="55.8585859" y="40" width="7.97979798" height="20"></rect>
                            <rect id="XMLID_814_" fill="#D80027" x="55.8585859" y="60" width="7.97979798" height="20"></rect>
                            <polygon id="XMLID_815_" fill="#565659" points="7.97979798 7 3.98989899 7 0 7 0 13 3.98989899 13 7.97979798 13"></polygon>
                            <polygon id="XMLID_816_" fill="#565659" points="7.97979798 67 3.98989899 67 0 67 0 73 3.98989899 73 7.97979798 73"></polygon>
                            <polygon id="XMLID_817_" fill="#565659" points="7.97979798 47 3.98989899 47 0 47 0 53 3.98989899 53 7.97979798 53"></polygon>
                            <polygon id="XMLID_818_" fill="#565659" points="7.97979798 27 3.98989899 27 0 27 0 33 3.98989899 33 7.97979798 33"></polygon>
                        </g>
                    </g>
                </g>
            </g>
        </g>
    </g>
</svg>