<?xml version="1.0" encoding="UTF-8"?>
<svg width="80px" height="80px" viewBox="0 0 80 80" version="1.1" xmlns="http://www.w3.org/2000/svg" xmlns:xlink="http://www.w3.org/1999/xlink">
    <!-- Generator: Sketch 43.1 (39012) - http://www.bohemiancoding.com/sketch -->
    <title>svg/004-clock</title>
    <desc>Created with Sketch.</desc>
    <defs></defs>
    <g id="Макеты" stroke="none" stroke-width="1" fill="none" fill-rule="evenodd">
        <g id="volshebnij_ostrov_index_02" transform="translate(-732.000000, -1352.000000)" fill-rule="nonzero">
            <g id="Преимущества" transform="translate(49.000000, 1286.000000)">
                <g id="svg/004-clock" transform="translate(683.000000, 66.000000)">
                    <g id="Capa_1">
                        <g id="XMLID_894_">
                            <path d="M6.31578947,40 C6.31578947,21.3966316 21.3970526,6.31578947 40,6.31578947 L40,0 C17.9086316,0 0,17.9086316 0,40 C0,62.0913684 17.9086316,80 40,80 L40,73.6842105 C21.3970526,73.6842105 6.31578947,58.6031579 6.31578947,40 Z" id="XMLID_895_" fill="#818085"></path>
                            <path d="M40,0 L40,6.31578947 C58.6029474,6.31578947 73.6842105,21.3966316 73.6842105,40 C73.6842105,58.6031579 58.6029474,73.6842105 40,73.6842105 L40,80 C62.0913684,80 80,62.0913684 80,40 C80,17.9086316 62.0913684,0 40,0 Z" id="XMLID_896_" fill="#565659"></path>
                            <path d="M6.31578947,40 C6.31578947,58.6031579 21.3970526,73.6842105 40,73.6842105 C58.6029474,73.6842105 73.6842105,58.6031579 73.6842105,40 C73.6842105,21.3966316 58.6029474,6.31578947 40,6.31578947 C21.3970526,6.31578947 6.31578947,21.3966316 6.31578947,40 Z M36.8421053,12.6315789 L43.1578947,12.6315789 L43.1578947,18.9473684 L36.8421053,18.9473684 L36.8421053,12.6315789 Z M36.8421053,36.8421053 L36.8421053,25.2631579 L43.1578947,25.2631579 L43.1578947,36.8421053 L61.0526316,36.8421053 L67.3684211,36.8421053 L67.3684211,43.1578947 L61.0526316,43.1578947 L43.1578947,43.1578947 L36.8421053,43.1578947 L36.8421053,36.8421053 Z M36.8421053,61.0526316 L43.1578947,61.0526316 L43.1578947,67.3684211 L36.8421053,67.3684211 L36.8421053,61.0526316 Z M18.9473684,43.1578947 L12.6315789,43.1578947 L12.6315789,36.8421053 L18.9473684,36.8421053 L18.9473684,43.1578947 Z" id="XMLID_897_" fill="#FFFFFF"></path>
                            <rect id="XMLID_903_" fill="#ACABB1" x="36.8421053" y="12.6315789" width="6.31578947" height="6.31578947"></rect>
                            <rect id="XMLID_904_" fill="#ACABB1" x="36.8421053" y="61.0526316" width="6.31578947" height="6.31578947"></rect>
                            <rect id="XMLID_905_" fill="#2B2B2C" x="43.1578947" y="36.8421053" width="17.8947368" height="6.31578947"></rect>
                            <rect id="XMLID_906_" fill="#ACABB1" x="61.0526316" y="36.8421053" width="6.31578947" height="6.31578947"></rect>
                            <rect id="XMLID_907_" fill="#ACABB1" x="12.6315789" y="36.8421053" width="6.31578947" height="6.31578947"></rect>
                            <polygon id="XMLID_908_" fill="#D80027" points="43.1578947 43.1578947 43.1578947 36.8421053 43.1578947 25.2631579 36.8421053 25.2631579 36.8421053 36.8421053 36.8421053 43.1578947"></polygon>
                        </g>
                    </g>
                </g>
            </g>
        </g>
    </g>
</svg>