<?xml version="1.0" encoding="UTF-8"?>
<svg width="75px" height="80px" viewBox="0 0 75 80" version="1.1" xmlns="http://www.w3.org/2000/svg" xmlns:xlink="http://www.w3.org/1999/xlink">
    <!-- Generator: Sketch 43.1 (39012) - http://www.bohemiancoding.com/sketch -->
    <title>svg/005-landscape</title>
    <desc>Created with Sketch.</desc>
    <defs></defs>
    <g id="Макеты" stroke="none" stroke-width="1" fill="none" fill-rule="evenodd">
        <g id="volshebnij_ostrov_index_02" transform="translate(-1054.000000, -1346.000000)" fill-rule="nonzero">
            <g id="Преимущества" transform="translate(49.000000, 1286.000000)">
                <g id="svg/005-landscape" transform="translate(1005.454545, 60.000000)">
                    <g id="Capa_1">
                        <g id="XMLID_1325_">
                            <path d="M36.7879724,29.2073879 L74.4030644,29.2073879 C74.4524821,28.8540369 74.4794944,28.4918206 74.4794944,28.1241161 C74.4794944,23.7944063 70.9982635,20.2849604 66.7010112,20.2849604 C65.5053524,20.2849604 64.3727222,20.5568338 63.3588202,21.0435884 C63.1718284,16.8806332 59.7668182,13.5643272 55.5899694,13.5643272 C51.2950204,13.5643272 47.8116956,17.0739842 47.8116956,21.4045383 C47.8116956,22.0985752 47.9027835,22.7710818 48.0698825,23.4100264 C46.9967211,22.846438 45.7753064,22.5236939 44.4789275,22.5236939 C40.5740858,22.5236939 37.3435036,25.4264908 36.7879724,29.2073879 Z" id="XMLID_1326_" fill="#DEDDE0"></path>
                            <path d="M51.4457865,43.9831135 L30.9348979,55.2610026 L33.6470123,79.8670185 L74.4794944,79.8670185 L74.4794944,43.9831135 L51.4457865,56.6480211 L51.4457865,43.9831135 Z M59.8216803,62.9804749 L66.1036006,62.9804749 L66.1036006,69.3129288 L59.8216803,69.3129288 L59.8216803,62.9804749 Z M43.0698927,69.3129288 L36.7879724,69.3129288 L36.7879724,62.9804749 L43.0698927,62.9804749 L43.0698927,69.3129288 Z" id="XMLID_1327_" fill="#006C70"></path>
                            <polygon id="XMLID_1331_" fill="#00D7DF" points="13.7542646 69.3129288 13.7542646 62.9804749 16.9999234 62.9804749 16.9999234 29.20781 5.72722676 29.20781 0.143437181 79.8670185 16.9999234 79.8670185 16.9999234 69.3129288"></polygon>
                            <polygon id="XMLID_1332_" fill="#00A1A7" points="28.0632227 29.20781 16.9999234 29.20781 16.9999234 62.9804749 20.0361849 62.9804749 20.0361849 69.3129288 16.9999234 69.3129288 16.9999234 79.8670185 33.6470123 79.8670185 30.9348979 55.2610026"></polygon>
                            <path d="M41.047952,15.3973615 C41.047952,10.8183641 37.3656997,7.10649077 32.8232431,7.10649077 C31.557855,7.10649077 30.3596834,7.39546174 29.2886159,7.90986807 C29.0909448,3.50817942 25.4893105,0 21.0735393,0 C16.5310827,0 12.8488304,3.71208443 12.8488304,8.29087071 C12.8488304,9.02459103 12.9443156,9.73551451 13.1218846,10.4126649 C11.9854852,9.81509235 10.6943412,9.47525066 9.32383555,9.47525066 C5.19431052,9.47525066 1.77778345,12.5441689 1.1904239,16.5424802 L40.9671246,16.5424802 C41.0188458,16.1680211 41.047952,15.7865963 41.047952,15.3973615 Z" id="XMLID_1333_" fill="#ACABB1"></path>
                            <rect id="XMLID_1334_" fill="#FFFFFF" x="36.7879724" y="62.9804749" width="6.28192033" height="6.33245383"></rect>
                            <rect id="XMLID_1335_" fill="#FFFFFF" x="59.8216803" y="62.9804749" width="6.28192033" height="6.33245383"></rect>
                            <polygon id="XMLID_1336_" fill="#FFFFFF" points="13.7542646 69.3129288 16.9999234 69.3129288 20.0361849 69.3129288 20.0361849 62.9804749 16.9999234 62.9804749 13.7542646 62.9804749"></polygon>
                            <polygon id="XMLID_1337_" fill="#565659" points="28.0632227 29.20781 30.5060521 29.20781 30.5060521 22.8753562 3.28439734 22.8753562 3.28439734 29.20781 5.72722676 29.20781 16.9999234 29.20781"></polygon>
                        </g>
                    </g>
                </g>
            </g>
        </g>
    </g>
</svg>