<svg xmlns="http://www.w3.org/2000/svg" width="105" height="105" viewBox="0 0 105 105">
  <defs>
    <style>
      .cls-1 {
        fill: #f3efe7;
        fill-rule: evenodd;
      }
    </style>
  </defs>
  <path id="избранное" class="cls-1" d="M612.914,7450.82a3.86,3.86,0,0,0-2.433-2.71l-30.36-10.21-16.216-29.91a3.786,3.786,0,0,0-6.666,0l-16.126,29.82-30.45,9.21a3.545,3.545,0,0,0-2.522,2.62,3.838,3.838,0,0,0,.9,3.62l20,21.95-8.288,31a3.758,3.758,0,0,0,1.171,3.79,3.638,3.638,0,0,0,3.874.73l34.774-13.92,34.774,13.92a3.741,3.741,0,0,0,1.442.27,3.882,3.882,0,0,0,2.522-1,3.812,3.812,0,0,0,1.171-3.79l-8.288-31,19.82-20.87A4.159,4.159,0,0,0,612.914,7450.82Zm-26.69,20.76a3.97,3.97,0,0,0-.936,3.75l7.2,26.58-30.4-11.98a3.824,3.824,0,0,0-1.5-.28,4.174,4.174,0,0,0-1.5.28L528.784,7502l7.2-26.58a3.733,3.733,0,0,0-.936-3.65L517,7451.93l27.223-8.14a3.645,3.645,0,0,0,2.339-1.87l14.032-25.93,14.033,25.93a4.119,4.119,0,0,0,2.245,1.87L604,7452.87Z" transform="translate(-508 -7406)"/>
</svg>
