<svg xmlns="http://www.w3.org/2000/svg" width="28" height="28" viewBox="0 0 28 28">
  <metadata><?xpacket begin="﻿" id="W5M0MpCehiHzreSzNTczkc9d"?>
<x:xmpmeta xmlns:x="adobe:ns:meta/" x:xmptk="Adobe XMP Core 5.6-c138 79.159824, 2016/09/14-01:09:01        ">
   <rdf:RDF xmlns:rdf="http://www.w3.org/1999/02/22-rdf-syntax-ns#">
      <rdf:Description rdf:about=""/>
   </rdf:RDF>
</x:xmpmeta>
                                                                                                    
                                                                                                    
                                                                                                    
                                                                                                    
                                                                                                    
                                                                                                    
                                                                                                    
                                                                                                    
                                                                                                    
                                                                                                    
                                                                                                    
                                                                                                    
                                                                                                    
                                                                                                    
                                                                                                    
                                                                                                    
                                                                                                    
                                                                                                    
                                                                                                    
                                                                                                    
                           
<?xpacket end="w"?></metadata>
<defs>
    <style>
      .cls-1 {
        fill: #ffc107;
        fill-rule: evenodd;
      }
    </style>
  </defs>
  <path class="cls-1" d="M594.761,283.677l-1.541.314a11.052,11.052,0,0,1-.887,2.745l1.128,1.194a1.532,1.532,0,0,1,.055,2.044l-1.639,1.939a1.542,1.542,0,0,1-2.028.289l-1.4-.923a11.4,11.4,0,0,1-2.607,1.317l-0.056,1.7a1.541,1.541,0,0,1-1.411,1.483l-2.533.216a1.55,1.55,0,0,1-1.64-1.231l-0.351-1.736a11.111,11.111,0,0,1-2.607-.85l-1.27,1.189a1.537,1.537,0,0,1-2.046.055l-1.941-1.637a1.536,1.536,0,0,1-.29-2.025l0.968-1.459a11.274,11.274,0,0,1-1.227-2.339l-1.732-.056a1.542,1.542,0,0,1-1.485-1.409l-0.216-2.53a1.548,1.548,0,0,1,1.233-1.638l1.6-.326a11.493,11.493,0,0,1,.826-2.733l-1.122-1.194a1.531,1.531,0,0,1-.055-2.043l1.639-1.952a1.542,1.542,0,0,1,2.028-.289l1.282,0.849a11.142,11.142,0,0,1,2.73-1.434l0.05-1.5a1.542,1.542,0,0,1,1.411-1.484l2.533-.216a1.55,1.55,0,0,1,1.64,1.232l0.3,1.477a11.076,11.076,0,0,1,2.859.923l1.073-1a1.537,1.537,0,0,1,2.046-.055l1.942,1.637a1.529,1.529,0,0,1,.277,2.031l-0.844,1.268a11.191,11.191,0,0,1,1.288,2.536l1.547,0.049a1.543,1.543,0,0,1,1.485,1.41l0.216,2.53A1.549,1.549,0,0,1,594.761,283.677ZM582,274a8,8,0,1,0,8,8A8,8,0,0,0,582,274Zm1.34,10.2a1.215,1.215,0,0,1-.3.447,1.738,1.738,0,0,1-2.081,0,1.191,1.191,0,0,1-.3-0.447l-2.278-2.058a1.177,1.177,0,0,1,0-1.752,1.406,1.406,0,0,1,1.886,0L582,281.951l1.733-1.565a1.406,1.406,0,0,1,1.886,0,1.177,1.177,0,0,1,0,1.752Z" transform="translate(-568 -268)"/>
</svg>
