<svg xmlns="http://www.w3.org/2000/svg" width="98" height="115" viewBox="0 0 98 115">
  <defs>
    <style>
      .cls-1 {
        fill: #f3efe7;
        fill-rule: evenodd;
      }
    </style>
  </defs>
  <path id="личные" class="cls-1" d="M237.582,7463.96h0.764c6.99-.11,12.645-2.57,16.82-7.26,9.185-10.33,7.658-28.05,7.491-29.74-0.6-12.7-6.608-18.77-11.571-21.6A26.5,26.5,0,0,0,238.25,7402h-0.405a26.644,26.644,0,0,0-12.836,3.26c-5.01,2.84-11.118,8.91-11.714,21.7-0.167,1.69-1.694,19.41,7.491,29.74C224.938,7461.39,230.592,7463.85,237.582,7463.96Zm-17.917-36.41c0-.07.024-0.14,0.024-0.19,0.787-17.07,12.931-18.91,18.132-18.91h0.286c6.442,0.15,17.393,2.77,18.132,18.91a0.467,0.467,0,0,0,.024.19c0.024,0.17,1.694,16.36-5.893,24.89-3.006,3.38-7.014,5.05-12.287,5.09h-0.238c-5.249-.04-9.281-1.71-12.263-5.09C218.019,7443.96,219.641,7427.7,219.665,7427.55Zm67.328,65.8v-0.07c0-.19-0.024-0.38-0.024-0.59-0.143-4.72-.454-15.75-10.808-19.27l-0.238-.07a69.007,69.007,0,0,1-19.8-9,3.215,3.215,0,1,0-3.7,5.26,74.593,74.593,0,0,0,21.783,9.93c5.559,1.98,6.179,7.91,6.346,13.34a4.69,4.69,0,0,0,.024.59,43.182,43.182,0,0,1-.5,7.36c-3.865,2.19-19.015,9.76-42.062,9.76-22.952,0-38.2-7.59-42.086-9.78a40.865,40.865,0,0,1-.5-7.36c0-.19.024-0.38,0.024-0.6,0.167-5.43.787-11.36,6.346-13.33a74.786,74.786,0,0,0,21.783-9.94,3.215,3.215,0,0,0-3.7-5.26,67.964,67.964,0,0,1-19.8,9c-0.095.03-.167,0.05-0.238,0.08-10.355,3.54-10.665,14.57-10.808,19.26a4.772,4.772,0,0,1-.024.6v0.07c-0.024,1.24-.048,7.59,1.217,10.79a3.065,3.065,0,0,0,1.241,1.5c0.715,0.47,17.869,11.38,46.571,11.38s45.855-10.93,46.571-11.38a3.2,3.2,0,0,0,1.241-1.5C287.04,7500.95,287.017,7494.59,286.993,7493.35Z" transform="translate(-189 -7402)"/>
</svg>
