<svg xmlns="http://www.w3.org/2000/svg" width="174" height="103" viewBox="0 0 174 103">
  <defs>
    <style>
      .cls-1 {
        fill: #ffce34;
        fill-rule: evenodd;
      }
    </style>
  </defs>
  <path id="подписка" class="cls-1" d="M1256.53,7403.11l-106.24,28.42a3.386,3.386,0,0,0-2.4,4.15l1.65,6.16-31.25,8.36a3.38,3.38,0,1,0,1.75,6.53l31.25-8.36,11.39,42.43-18.68,5a3.382,3.382,0,1,0,1.76,6.53l18.67-5,1.66,6.16a3.376,3.376,0,0,0,4.15,2.39l106.25-28.42a3.394,3.394,0,0,0,2.4-4.15l-18.2-67.81A3.386,3.386,0,0,0,1256.53,7403.11Zm-6.33,8.69-35.15,48.88-54.7-24.83Zm21.25,60-99.68,26.67-15.28-56.94,58.28,26.46a3.371,3.371,0,0,0,2.29.19,3.325,3.325,0,0,0,1.88-1.3l37.28-51.84Zm-128.75-2.25-35.19,9.42a3.38,3.38,0,1,0,1.75,6.53l35.19-9.41A3.385,3.385,0,1,0,1142.7,7469.55Zm-9.52,29.14-1.75.47a3.38,3.38,0,1,0,1.75,6.53l1.76-.46A3.386,3.386,0,1,0,1133.18,7498.69Z" transform="translate(-1105 -7403)"/>
</svg>
