<?xml version="1.0" encoding="UTF-8"?>
<svg width="654px" height="50px" viewBox="0 0 654 50" version="1.1" xmlns="http://www.w3.org/2000/svg" xmlns:xlink="http://www.w3.org/1999/xlink">
    <!-- Generator: Sketch 43.1 (39012) - http://www.bohemiancoding.com/sketch -->
    <title>svg/catalog_bg</title>
    <desc>Created with Sketch.</desc>
    <defs></defs>
    <g id="Макеты" stroke="none" stroke-width="1" fill="none" fill-rule="evenodd">
        <g id="volshebnij_ostrov_index_02" transform="translate(-202.000000, -2100.000000)" fill="#FFF9C4">
            <g id="Получить-каталог" transform="translate(169.000000, 1623.000000)">
                <g id="svg/catalog_bg" transform="translate(33.000000, 477.000000)">
                    <path d="M99.06,16 L161.502285,16 C165.090874,16 168,18.9174538 168,22.5 C168,26.0898509 165.088603,29 161.502285,29 L99.06,29 L111.502285,29 C115.088603,29 118,26.0898509 118,22.5 C118,18.9174538 115.090874,16 111.502285,16 L99.06,16 Z M80.12,9.5 C80.12,5.91014913 83.0313972,3 86.6177148,3 L161.502285,3 C165.090874,3 168,5.91745375 168,9.5 C168,13.0898509 165.088603,16 161.502285,16 L86.6177148,16 C83.029126,16 80.12,13.0825462 80.12,9.5 Z M60.12,35.5 C60.12,31.9101491 63.0313972,29 66.6177148,29 L141.502285,29 C145.090874,29 148,31.9174538 148,35.5 C148,39.0898509 145.088603,42 141.502285,42 L66.6177148,42 C63.029126,42 60.12,39.0825462 60.12,35.5 Z M0.12,35.5 C0.12,31.9101491 3.02948217,29 6.61027097,29 L31.509729,29 C35.0942067,29 38,31.9174538 38,35.5 C38,39.0898509 35.0905178,42 31.509729,42 L6.61027097,42 C3.02579329,42 0.12,39.0825462 0.12,35.5 Z" id="Combined-Shape"></path>
                    <path d="M498.06,24 L430.617715,24 C427.031397,24 424.12,26.9101491 424.12,30.5 C424.12,34.0825462 427.029126,37 430.617715,37 L498.06,37 L490.617715,37 C487.029126,37 484.12,34.0825462 484.12,30.5 C484.12,26.9101491 487.031397,24 490.617715,24 L498.06,24 Z M416.12,17.5 C416.12,13.9101491 419.031397,11 422.617715,11 L497.502285,11 C501.090874,11 504,13.9174538 504,17.5 C504,21.0898509 501.088603,24 497.502285,24 L422.617715,24 C419.029126,24 416.12,21.0825462 416.12,17.5 Z M434.12,43.5 C434.12,39.9101491 437.031397,37 440.617715,37 L515.502285,37 C519.090874,37 522,39.9174538 522,43.5 C522,47.0898509 519.088603,50 515.502285,50 L440.617715,50 C437.029126,50 434.12,47.0825462 434.12,43.5 Z M606.12,17.5 C606.12,13.9101491 609.025134,11 612.627139,11 L647.492861,11 C651.086654,11 654,13.9174538 654,17.5 C654,21.0898509 651.094866,24 647.492861,24 L612.627139,24 C609.033346,24 606.12,21.0825462 606.12,17.5 Z M534.12,30.5 C534.12,26.9101491 537.024749,24 540.621435,24 L555.498565,24 C559.089208,24 562,26.9174538 562,30.5 C562,34.0898509 559.095251,37 555.498565,37 L540.621435,37 C537.030792,37 534.12,34.0825462 534.12,30.5 Z" id="Combined-Shape"></path>
                    <rect id="Rectangle-7" x="130" y="0" width="338" height="50" rx="25"></rect>
                </g>
            </g>
        </g>
    </g>
</svg>