<svg xmlns="http://www.w3.org/2000/svg" width="17" height="20" viewBox="0 0 17 20">
  <defs>
    <style>
      .cls-1 {
        fill: #e4e4e4;
        fill-rule: evenodd;
      }
    </style>
  </defs>
  <path class="cls-1" d="M1265,250h-1v-5h-11v5h-1c-1.17,0-2-.31-2-1.466V244.1a2.109,2.109,0,0,1,2.12-2.1h12.76a2.109,2.109,0,0,1,2.12,2.1v4.443C1267,249.7,1266.17,250,1265,250Zm-7.4-1.955a1.277,1.277,0,0,1,1.79,0l4.45,4.393a1.483,1.483,0,0,1-.24,2.3,1.56,1.56,0,0,1-1.93-.233l-1.66-1.64v7.641a1.51,1.51,0,0,1-3.02,0v-7.641l-1.66,1.64a1.559,1.559,0,0,1-1.94.233,1.483,1.483,0,0,1-.24-2.3Z" transform="translate(-1250 -242)"/>
</svg>
