<svg xmlns="http://www.w3.org/2000/svg" width="18" height="20" viewBox="0 0 18 20">
<defs>
    <style>
      .cls-1 {
        fill-rule: evenodd;
      }
    </style>
  </defs>
  <path id="Forma_1" data-name="Forma 1" class="cls-1" d="M935.5,457.3a2.242,2.242,0,0,0,2.247,1.7h8.51a2.243,2.243,0,0,0,2.247-1.7l1.68-11.636H933.818Zm9.775-9.136a0.818,0.818,0,1,1,1.636,0l-0.818,7.5a0.818,0.818,0,1,1-1.636,0Zm-4.091,0a0.818,0.818,0,1,1,1.636,0v7.5a0.818,0.818,0,1,1-1.636,0v-7.5h0Zm-3.273-.834a0.826,0.826,0,0,1,.818.834l0.818,7.5a0.818,0.818,0,1,1-1.636,0l-0.818-7.5A0.826,0.826,0,0,1,937.909,447.333Zm11.782-5h-3.6v-1.668c0-1.265-.4-1.667-1.636-1.667h-4.91a1.445,1.445,0,0,0-1.636,1.667v1.668h-3.6a1.252,1.252,0,1,0,0,2.5h15.382A1.252,1.252,0,1,0,949.691,442.335Zm-5.236,0h-4.91v-1.668h4.909v1.668h0Z" transform="translate(-933 -439)"/>
</svg>
