<svg xmlns="http://www.w3.org/2000/svg" width="15" height="14" viewBox="0 0 15 14">
  <metadata><?xpacket begin="﻿" id="W5M0MpCehiHzreSzNTczkc9d"?>
<x:xmpmeta xmlns:x="adobe:ns:meta/" x:xmptk="Adobe XMP Core 5.6-c138 79.159824, 2016/09/14-01:09:01        ">
   <rdf:RDF xmlns:rdf="http://www.w3.org/1999/02/22-rdf-syntax-ns#">
      <rdf:Description rdf:about=""/>
   </rdf:RDF>
</x:xmpmeta>
                                                                                                    
                                                                                                    
                                                                                                    
                                                                                                    
                                                                                                    
                                                                                                    
                                                                                                    
                                                                                                    
                                                                                                    
                                                                                                    
                                                                                                    
                                                                                                    
                                                                                                    
                                                                                                    
                                                                                                    
                                                                                                    
                                                                                                    
                                                                                                    
                                                                                                    
                                                                                                    
                           
<?xpacket end="w"?></metadata>
<defs>
    <style>
      .cls-1 {
        fill: #ff6374;
        fill-rule: evenodd;
      }
    </style>
  </defs>
  <path id="Forma_1" data-name="Forma 1" class="cls-1" d="M152.759,485.045A3.193,3.193,0,1,1,156,481.852,3.221,3.221,0,0,1,152.759,485.045Zm0-4.7a1.509,1.509,0,1,0,1.532,1.509A1.522,1.522,0,0,0,152.759,480.343Zm-6.695,5.2a0.855,0.855,0,0,1-.762.46,0.865,0.865,0,0,1-.387-0.091,0.837,0.837,0,0,1-.374-1.132L150.9,472.46a0.862,0.862,0,0,1,1.149-.369,0.836,0.836,0,0,1,.374,1.132Zm-1.823-6.2a3.193,3.193,0,1,1,3.241-3.193A3.221,3.221,0,0,1,144.241,479.34Zm0-4.7a1.509,1.509,0,1,0,1.532,1.509A1.522,1.522,0,0,0,144.241,474.638Z" transform="translate(-141 -472)"/>
</svg>
