<?xml version="1.0" encoding="UTF-8"?>
<svg width="82px" height="82px" viewBox="0 0 82 82" version="1.1" xmlns="http://www.w3.org/2000/svg" xmlns:xlink="http://www.w3.org/1999/xlink">
    <!-- Generator: Sketch 43.1 (39012) - http://www.bohemiancoding.com/sketch -->
    <title>svg/email</title>
    <desc>Created with Sketch.</desc>
    <defs></defs>
    <g id="Макеты" stroke="none" stroke-width="1" fill="none" fill-rule="evenodd">
        <g id="volshebnij_ostrov_index_02" transform="translate(-861.000000, -2068.000000)" fill-rule="nonzero">
            <g id="Получить-каталог" transform="translate(169.000000, 1623.000000)">
                <g id="svg/email" transform="translate(692.000000, 445.000000)">
                    <path d="M74.3125,82 L7.6875,82 C3.44832422,82 0,78.5516758 0,74.3125 L0,33.3125 C0,31.0653477 0.9609375,28.9581719 2.63761328,27.5218906 C3.50341797,26.7710781 4.75968359,26.7010898 5.71565625,27.331625 L79.1122227,76.019125 C79.7728672,76.4595547 80.1932773,77.1802578 80.2533359,77.9760742 C80.3084297,78.7669258 79.993082,79.5425625 79.4024258,80.0681953 C78.0061836,81.3143711 76.1943359,82 74.3125,82 Z" id="Shape" fill="#FFDE33"></path>
                    <path d="M41,50.739582 L41,82 L74.3125,82 C76.1943359,82 78.0061836,81.3143711 79.4024258,80.0680352 C79.993082,79.5425625 80.3082695,78.7667656 80.2533359,77.9759141 C80.1932773,77.1800977 79.7728672,76.4593945 79.1122227,76.0189648 L41,50.739582 Z" id="Shape" fill="#FFBC33"></path>
                    <path d="M81.2317305,30.1343594 C80.8726602,29.2634297 80.3082695,28.4426289 79.5914102,27.7270508 C79.48875,27.5718594 79.3348398,27.4717617 79.1809297,27.3666992 C78.31,26.7510586 77.1314102,26.7010898 76.2092305,27.2666016 L61.5,37.0561523 L39.5648398,51.6604805 C38.8478203,52.1710586 38.4375,52.9417305 38.4375,53.8126602 C38.4375,54.6835898 38.8479805,55.4542617 39.5648398,55.9648398 L77.6432695,81.2294883 C80.3596797,79.9480781 82,77.2353516 82,74.3125 L82,33.3125 C82,32.2364102 81.7434297,31.1604805 81.2317305,30.1343594 Z" id="Shape" fill="#FCB33B"></path>
                    <g id="Group" transform="translate(0.640625, 25.625000)" fill="#F69838">
                        <path d="M0.0369960937,4.51544531 C1.32048828,1.65249219 4.11089062,0 7.046875,0 L17.296875,0 C18.7132969,0 19.859375,1.14607813 19.859375,2.5625 L19.859375,12.8626289 C19.859375,13.8035469 19.3388672,14.6744766 18.5079766,15.1198711 C18.1325703,15.3250313 17.7121602,15.4251289 17.296875,15.4251289 C16.8013516,15.4251289 16.3109531,15.2800273 15.885418,14.9997539 L0.0369960937,4.51544531 Z" id="Shape"></path>
                        <path d="M78.9507852,2.10205078 C78.848125,1.94685938 78.6942148,1.84676172 78.5403047,1.74169922 C77.1565547,0.615640625 75.4661055,0 73.671875,0 L63.421875,0 C61.9867148,0 60.859375,1.12605859 60.859375,2.5625 L60.859375,12.8125 C60.859375,13.7333984 61.3723555,14.6043281 62.191875,15.0697422 C62.6023555,15.2749023 63.0113945,15.375 63.421875,15.375 C63.9348555,15.375 64.3953047,15.2198086 64.8570352,14.9645195 L80.5911055,4.50935938 C80.2320352,3.63858984 79.6678047,2.81778906 78.9507852,2.10205078 Z" id="Shape"></path>
                    </g>
                    <path d="M79.5914102,27.7270508 C79.9668164,28.102457 80.293375,28.5078125 80.577332,28.9331875 C80.2533359,28.5228672 79.9754648,28.0574531 79.5914102,27.7270508 Z" id="Shape" fill="#5C5F66"></path>
                    <path d="M41.0022422,56.8907031 L15.375,39.8579258 L15.375,7.6875 C15.375,3.44175781 18.8167578,0 23.0625,0 L58.9375,0 C63.1832422,0 66.625,3.44175781 66.625,7.6875 L66.625,39.808918 L41.0022422,56.8907031 Z M64.0625,38.4375 L64.1126289,38.4375 L64.0625,38.4375 Z" id="Shape" fill="#E6EEFF"></path>
                    <path d="M26.90625,71.75 L12.8125,71.75 C11.3960781,71.75 10.25,70.6039219 10.25,69.1875 L10.25,59.8984375 C10.25,58.4820156 11.3960781,57.3359375 12.8125,57.3359375 L26.90625,57.3359375 C28.3226719,57.3359375 29.46875,58.4820156 29.46875,59.8984375 L29.46875,69.1875 C29.46875,70.6039219 28.3226719,71.75 26.90625,71.75 Z" id="Shape" fill="#FFFFFF"></path>
                    <path d="M79.5914102,27.7270508 C79.9668164,28.102457 80.293375,28.5078125 80.577332,28.9331875 C80.2533359,28.5228672 79.9754648,28.0574531 79.5914102,27.7270508 Z" id="Shape" fill="#5C5F66"></path>
                    <path d="M58.9375,0 L41,0 L41,56.890543 L41.0025625,56.890543 L66.625,39.808918 L66.625,7.6875 C66.625,3.44335938 63.1829219,0 58.9375,0 Z" id="Shape" fill="#DAE2F2"></path>
                    <path d="M38.4375,15.0546875 L28.1875,15.0546875 C26.8607656,15.0546875 25.7851562,13.9790781 25.7851562,12.6523438 C25.7851562,11.3256094 26.8607656,10.25 28.1875,10.25 L38.4375,10.25 C39.7642344,10.25 40.8398438,11.3256094 40.8398438,12.6523438 C40.8398438,13.9790781 39.7642344,15.0546875 38.4375,15.0546875 Z" id="SVGCleanerId_0" fill="#A1A7B3"></path>
                    <path d="M38.4375,15.0546875 L28.1875,15.0546875 C26.8607656,15.0546875 25.7851562,13.9790781 25.7851562,12.6523438 C25.7851562,11.3256094 26.8607656,10.25 28.1875,10.25 L38.4375,10.25 C39.7642344,10.25 40.8398438,11.3256094 40.8398438,12.6523438 C40.8398438,13.9790781 39.7642344,15.0546875 38.4375,15.0546875 Z" id="SVGCleanerId_0_1_" fill="#A1A7B3"></path>
                    <path d="M53.8125,35.5546875 L28.1875,35.5546875 C26.8607656,35.5546875 25.7851562,34.4790781 25.7851562,33.1523438 C25.7851562,31.8256094 26.8607656,30.75 28.1875,30.75 L53.8125,30.75 C55.1392344,30.75 56.2148438,31.8256094 56.2148438,33.1523438 C56.2148438,34.4790781 55.1392344,35.5546875 53.8125,35.5546875 Z" id="Shape" fill="#A1A7B3"></path>
                    <path d="M41,35.5546875 L53.8125,35.5546875 C55.1392344,35.5546875 56.2148438,34.4790781 56.2148438,33.1523438 C56.2148438,31.8256094 55.1392344,30.75 53.8125,30.75 L41,30.75 L41,35.5546875 Z" id="Shape" fill="#9DA1A9"></path>
                    <path d="M53.8125,25.3046875 L28.1875,25.3046875 C26.8607656,25.3046875 25.7851562,24.2290781 25.7851562,22.9023438 C25.7851562,21.5756094 26.8607656,20.5 28.1875,20.5 L53.8125,20.5 C55.1392344,20.5 56.2148438,21.5756094 56.2148438,22.9023438 C56.2148438,24.2290781 55.1392344,25.3046875 53.8125,25.3046875 Z" id="Shape" fill="#A1A7B3"></path>
                    <path d="M41,25.3046875 L53.8125,25.3046875 C55.1392344,25.3046875 56.2148438,24.2290781 56.2148438,22.9023438 C56.2148438,21.5756094 55.1392344,20.5 53.8125,20.5 L41,20.5 L41,25.3046875 Z" id="Shape" fill="#9DA1A9"></path>
                </g>
            </g>
        </g>
    </g>
</svg>