<svg xmlns="http://www.w3.org/2000/svg" width="14" height="13" viewBox="0 0 14 13">
  <metadata><?xpacket begin="﻿" id="W5M0MpCehiHzreSzNTczkc9d"?>
<x:xmpmeta xmlns:x="adobe:ns:meta/" x:xmptk="Adobe XMP Core 5.6-c138 79.159824, 2016/09/14-01:09:01        ">
   <rdf:RDF xmlns:rdf="http://www.w3.org/1999/02/22-rdf-syntax-ns#">
      <rdf:Description rdf:about=""/>
   </rdf:RDF>
</x:xmpmeta>
                                                                                                    
                                                                                                    
                                                                                                    
                                                                                                    
                                                                                                    
                                                                                                    
                                                                                                    
                                                                                                    
                                                                                                    
                                                                                                    
                                                                                                    
                                                                                                    
                                                                                                    
                                                                                                    
                                                                                                    
                                                                                                    
                                                                                                    
                                                                                                    
                                                                                                    
                                                                                                    
                           
<?xpacket end="w"?></metadata>
<defs>
    <style>
      .cls-1 {
        fill: #61c1ef;
        fill-rule: evenodd;
      }
    </style>
  </defs>
  <path class="cls-1" d="M1241.67,447.361l-1,2.915a1.675,1.675,0,0,1-1.38.724h-3.62a3.377,3.377,0,0,1-2.4-1H1230c-1.58,0-2-.494-2-2v-2c0-2.084.76-2,1-2h3a0.838,0.838,0,0,0,.52-0.43,4.213,4.213,0,0,1,.98-1.715l3.59-3.751a0.327,0.327,0,0,1,.24-0.1h0.26a1.393,1.393,0,0,1,1.41,1.377,1.324,1.324,0,0,1-.15.615l-1.07,2.087a0.323,0.323,0,0,0,.02.317,0.306,0.306,0,0,0,.28.154H1240a1.312,1.312,0,0,1,1.33,1.3v0.876l0.34,0.488A1.911,1.911,0,0,1,1241.67,447.361Z" transform="translate(-1228 -438)"/>
</svg>
