<svg xmlns="http://www.w3.org/2000/svg" width="14" height="13" viewBox="0 0 14 13">
  <metadata><?xpacket begin="﻿" id="W5M0MpCehiHzreSzNTczkc9d"?>
<x:xmpmeta xmlns:x="adobe:ns:meta/" x:xmptk="Adobe XMP Core 5.6-c138 79.159824, 2016/09/14-01:09:01        ">
   <rdf:RDF xmlns:rdf="http://www.w3.org/1999/02/22-rdf-syntax-ns#">
      <rdf:Description rdf:about=""/>
   </rdf:RDF>
</x:xmpmeta>
                                                                                                    
                                                                                                    
                                                                                                    
                                                                                                    
                                                                                                    
                                                                                                    
                                                                                                    
                                                                                                    
                                                                                                    
                                                                                                    
                                                                                                    
                                                                                                    
                                                                                                    
                                                                                                    
                                                                                                    
                                                                                                    
                                                                                                    
                                                                                                    
                                                                                                    
                                                                                                    
                           
<?xpacket end="w"?></metadata>
<defs>
    <style>
      .cls-1 {
        fill: #61c1ef;
        fill-rule: evenodd;
      }
    </style>
  </defs>
  <path class="cls-1" d="M153.667,513.36l-0.994,2.916a1.676,1.676,0,0,1-1.387.724h-3.619a3.359,3.359,0,0,1-2.4-1H142c-1.579,0-2-.494-2-2v-2c0-2.084.76-2,1-2h3a0.867,0.867,0,0,0,.521-0.431,4.163,4.163,0,0,1,.978-1.715l3.59-3.751a0.34,0.34,0,0,1,.244-0.1h0.255A1.4,1.4,0,0,1,151,505.376a1.362,1.362,0,0,1-.149.616l-1.071,2.087a0.314,0.314,0,0,0,.015.316,0.329,0.329,0,0,0,.284.155H152a1.318,1.318,0,0,1,1.333,1.3v0.877l0.334,0.488A1.9,1.9,0,0,1,153.667,513.36Z" transform="translate(-140 -504)"/>
</svg>
