<svg version="1.1" id="Layer_1" xmlns="http://www.w3.org/2000/svg" xmlns:xlink="http://www.w3.org/1999/xlink" x="0px" y="0px"
	 viewBox="0 0 30 30" style="enable-background:new 0 0 30 30;" xml:space="preserve">
	<style type="text/css">
		.st0{fill:#E4B5FF;}
	</style>
	<path class="st0" d="M27.3,11.7c2.4,7.4-1.7,15.2-9.1,17.6C10.9,31.7,3,27.6,0.7,20.3C-1.7,12.9,2.4,5,9.7,2.7
		c2.8-0.9,5.8-0.9,8.5,0c2.1-2.9,6.2-3.5,9.1-1.4c2.9,2.1,3.5,6.2,1.4,9.1C28.4,10.8,27.9,11.3,27.3,11.7z M23.5,1
		c-2,0-3.9,1.1-4.8,2.9C12,1.3,4.4,4.6,1.8,11.3s0.7,14.3,7.4,16.9s14.3-0.7,16.9-7.4c1.2-3,1.2-6.4,0-9.4c2.7-1.4,3.7-4.8,2.2-7.4
		C27.4,2.1,25.5,1,23.5,1z"/>
	<polygon class="st0" points="27,7 25,7 25,9 23,9 23,7 21,7 21,5 23,5 23,3 25,3 25,5 27,5 "/>
	<path class="st0" d="M20.9,15.9c-0.3,1.2-0.9,2.2-1.8,3L14.5,23l-4.5-4.1c-0.9-0.8-1.5-1.8-1.8-3c-0.5-2.1,0.7-4.3,2.8-4.8
		c0.2,0,0.4-0.1,0.6-0.1c1.2,0,2.3,0.7,2.9,1.7c0.6-1.1,1.8-1.7,3-1.7c2.2,0.2,3.7,2.2,3.5,4.4C21,15.6,20.9,15.8,20.9,15.9z"/>
	</svg>
