<svg id="телефон" xmlns="http://www.w3.org/2000/svg" width="10" height="16" viewBox="0 0 10 16">
  <metadata><?xpacket begin="﻿" id="W5M0MpCehiHzreSzNTczkc9d"?>
<x:xmpmeta xmlns:x="adobe:ns:meta/" x:xmptk="Adobe XMP Core 5.6-c138 79.159824, 2016/09/14-01:09:01        ">
   <rdf:RDF xmlns:rdf="http://www.w3.org/1999/02/22-rdf-syntax-ns#">
      <rdf:Description rdf:about=""/>
   </rdf:RDF>
</x:xmpmeta>
                                                                                                    
                                                                                                    
                                                                                                    
                                                                                                    
                                                                                                    
                                                                                                    
                                                                                                    
                                                                                                    
                                                                                                    
                                                                                                    
                                                                                                    
                                                                                                    
                                                                                                    
                                                                                                    
                                                                                                    
                                                                                                    
                                                                                                    
                                                                                                    
                                                                                                    
                                                                                                    
                           
<?xpacket end="w"?></metadata>
<defs>
    <style>
      .cls-1 {
        fill: #ffc107;
      }

      .cls-1, .cls-2 {
        fill-rule: evenodd;
      }

      .cls-2 {
        fill: #fff9c4;
      }
    </style>
  </defs>
  <path id="Forma_1" data-name="Forma 1" class="cls-1" d="M136.581,422H129.42a1.434,1.434,0,0,0-1.412,1.457v13.09A1.434,1.434,0,0,0,129.42,438h7.161a1.434,1.434,0,0,0,1.411-1.455v-13.09A1.435,1.435,0,0,0,136.581,422Z" transform="translate(-128 -422)"/>
  <path class="cls-2" d="M131.2,423.012h3.6a0.674,0.674,0,0,1,0,.976h-3.6A0.672,0.672,0,0,1,131.2,423.012ZM136,434h-6v-9h6v9Zm-3,3a1.008,1.008,0,1,1,.992-1.009A1,1,0,0,1,133,437Z" transform="translate(-128 -422)"/>
</svg>
