<svg xmlns="http://www.w3.org/2000/svg" width="35" height="35" viewBox="0 0 35 35">
  <defs>
    <style>
      .cls-1 {
        fill: #ffcc34;
        fill-rule: evenodd;
      }
    </style>
  </defs>
  <path class="cls-1" d="M930.5,526a17.4,17.4,0,0,1-12.5-5.309V524h-1v-5h5v1h-3.277a16.47,16.47,0,0,0,27.443-16.658l0.878-.507A17.466,17.466,0,0,1,930.5,526Zm6.479-9H922.988l0.845-14.941h12.3Zm-10.461-15.907v-0.537a3.467,3.467,0,1,1,6.932,0v0.537h-1.9v-0.537a1.566,1.566,0,1,0-3.131,0v0.537h-1.9ZM940,499v-1h3.173a16.469,16.469,0,0,0-27.7,17.289l-0.868.5A17.466,17.466,0,0,1,944,497.432V494h1v5h-5Z" transform="translate(-913 -491)"/>
</svg>
