<svg xmlns="http://www.w3.org/2000/svg" width="15" height="14" viewBox="0 0 15 14">
  <metadata><?xpacket begin="﻿" id="W5M0MpCehiHzreSzNTczkc9d"?>
<x:xmpmeta xmlns:x="adobe:ns:meta/" x:xmptk="Adobe XMP Core 5.6-c138 79.159824, 2016/09/14-01:09:01        ">
   <rdf:RDF xmlns:rdf="http://www.w3.org/1999/02/22-rdf-syntax-ns#">
      <rdf:Description rdf:about=""/>
   </rdf:RDF>
</x:xmpmeta>
                                                                                                    
                                                                                                    
                                                                                                    
                                                                                                    
                                                                                                    
                                                                                                    
                                                                                                    
                                                                                                    
                                                                                                    
                                                                                                    
                                                                                                    
                                                                                                    
                                                                                                    
                                                                                                    
                                                                                                    
                                                                                                    
                                                                                                    
                                                                                                    
                                                                                                    
                                                                                                    
                           
<?xpacket end="w"?></metadata>
<defs>
    <style>
      .cls-1 {
        fill: #ffffff;
        fill-rule: evenodd;
      }
    </style>
  </defs>
  <path id="Forma_1" data-name="Forma 1" class="cls-1" d="M1081.05,439.091a0.862,0.862,0,0,0-1.15.369l-6.36,12.316a0.834,0.834,0,0,0,.38,1.132,0.824,0.824,0,0,0,.38.091,0.853,0.853,0,0,0,.76-0.46l6.36-12.315A0.839,0.839,0,0,0,1081.05,439.091Zm-4.57,4.056a3.24,3.24,0,1,0-3.24,3.193A3.219,3.219,0,0,0,1076.48,443.147Zm-3.24,1.509a1.509,1.509,0,1,1,1.53-1.509A1.524,1.524,0,0,1,1073.24,444.656Zm8.52,1a3.193,3.193,0,1,0,3.24,3.193A3.219,3.219,0,0,0,1081.76,445.659Zm0,4.7a1.509,1.509,0,1,1,1.53-1.509A1.517,1.517,0,0,1,1081.76,450.361Z" transform="translate(-1070 -439)"/>
</svg>
