<svg xmlns="http://www.w3.org/2000/svg" width="8.84" height="17" viewBox="0 0 8.84 17"><defs><style>.cls-1{fill:#fff9c4;fill-rule:evenodd}</style></defs><path class="cls-1" d="M8.55 5.22a.96.96 0 0 1-1.38-.01L4.42 2.4 1.66 5.21a.952.952 0 0 1-1.38.01 1 1 0 0 1 0-1.41L3.72.29a.987.987 0 0 1 .7-.3.948.948 0 0 1 .69.3l3.44 3.52a1 1 0 0 1 0 1.41zM.28 11.78a.952.952 0 0 1 1.38 0l2.76 2.81 2.75-2.81a.96.96 0 0 1 1.38 0 1 1 0 0 1 0 1.41l-3.44 3.52a.978.978 0 0 1-.69.29 1.019 1.019 0 0 1-.7-.29L.28 13.19a1 1 0 0 1 0-1.41z"/></svg>