<svg width="80" height="66" viewBox="0 0 80 66" xmlns="http://www.w3.org/2000/svg"><title>svg/006-graphic-1</title><g fill="none"><path fill="#FF5023" d="M6.122 28.571h12.245v28.571H6.122z"/><path fill="#FF9811" d="M6.122 14.286h12.245v14.286H6.122z"/><path fill="#FFDA44" d="M6.122 0h12.245v14.286H6.122z"/><path fill="#FF5023" d="M24.49 42.858h12.245v14.285H24.49z"/><path fill="#FF9811" d="M24.49 22.449h12.245v20.408H24.49z"/><path fill="#FFDA44" d="M24.49 8.163h12.245v14.286H24.49z"/><path fill="#FF5023" d="M42.857 36.735h12.245v20.408H42.857z"/><path fill="#FF9811" d="M42.857 14.286h12.245v22.449H42.857z"/><path fill="#FFDA44" d="M42.857 0h12.245v14.286H42.857z"/><path fill="#FF5023" d="M61.224 42.858h12.245v14.285H61.224z"/><path fill="#FF9811" d="M61.224 28.571h12.245v14.286H61.224z"/><path fill="#FFDA44" d="M61.224 8.164h12.245v20.408H61.224z"/><path fill="#CDCDD0" d="M36.735 57.143H0v8.163h39.796v-8.163z"/><path fill="#ACABB1" d="M73.47 57.143H39.795v8.163h39.796v-8.163z"/></g></svg>