<svg width="64" height="80" viewBox="0 0 64 80" xmlns="http://www.w3.org/2000/svg"><title>svg/001-agenda</title><g fill="none"><path fill="#DEDDE0" d="M33.914 0H11.97v80h21.944z"/><path fill="#CDCDD0" d="M55.859 40V0H33.914v80H55.86V60z"/><path fill="#ACABB1" d="M3.99 0v7h3.99v6H3.99v14h3.99v6H3.99v14h3.99v6H3.99v14h3.99v6H3.99v7h7.98V0z"/><path fill="#FFDA44" d="M55.859 0h7.98v20h-7.98z"/><path fill="#FF9811" d="M55.859 20h7.98v20h-7.98z"/><path fill="#FF5023" d="M55.859 40h7.98v20h-7.98z"/><path fill="#D80027" d="M55.859 60h7.98v20h-7.98z"/><path fill="#565659" d="M7.98 7H0v6h7.98zm0 60H0v6h7.98zm0-20H0v6h7.98zm0-20H0v6h7.98z"/></g></svg>