<svg width="80" height="80" viewBox="0 0 80 80" xmlns="http://www.w3.org/2000/svg"><title>svg/004-clock</title><g fill="none"><path d="M6.316 40C6.316 21.397 21.397 6.316 40 6.316V0C17.909 0 0 17.909 0 40s17.909 40 40 40v-6.316C21.397 73.684 6.316 58.604 6.316 40z" fill="#818085"/><path d="M40 0v6.316c18.603 0 33.684 15.08 33.684 33.684 0 18.603-15.081 33.684-33.684 33.684V80c22.091 0 40-17.909 40-40S62.091 0 40 0z" fill="#565659"/><path d="M6.316 40c0 18.603 15.081 33.684 33.684 33.684 18.603 0 33.684-15.08 33.684-33.684C73.684 21.397 58.603 6.316 40 6.316 21.397 6.316 6.316 21.396 6.316 40zm30.526-27.368h6.316v6.315h-6.316v-6.315zm0 24.21V25.263h6.316v11.58h24.21v6.315H36.842v-6.316zm0 24.21h6.316v6.316h-6.316v-6.315zM18.947 43.159h-6.315v-6.316h6.315v6.316z" fill="#FFF"/><path fill="#ACABB1" d="M36.842 12.632h6.316v6.316h-6.316zm0 48.421h6.316v6.316h-6.316z"/><path fill="#2B2B2C" d="M43.158 36.842h17.895v6.316H43.158z"/><path fill="#ACABB1" d="M61.053 36.842h6.316v6.316h-6.316zm-48.421 0h6.316v6.316h-6.316z"/><path fill="#D80027" d="M43.158 43.158V25.263h-6.316v17.895z"/></g></svg>