<svg width="75" height="80" viewBox="0 0 75 80" xmlns="http://www.w3.org/2000/svg"><title>svg/005-landscape</title><g fill="none"><path d="M37.243 29.207h37.615c.049-.353.076-.715.076-1.083 0-4.33-3.481-7.839-7.778-7.839a7.699 7.699 0 0 0-3.343.759c-.187-4.163-3.592-7.48-7.768-7.48-4.295 0-7.779 3.51-7.779 7.84 0 .695.091 1.367.258 2.006a7.703 7.703 0 0 0-3.59-.886c-3.905 0-7.136 2.902-7.691 6.683z" fill="#DEDDE0"/><path d="M51.9 43.983L31.39 55.261l2.712 24.606h40.832V43.983L51.9 56.648V43.983zm8.376 18.997h6.282v6.333h-6.282V62.98zm-16.752 6.333h-6.281V62.98h6.281v6.333z" fill="#006C70"/><path fill="#00D7DF" d="M14.209 69.313V62.98h3.245V29.208H6.182L.598 79.867h16.856V69.313z"/><path fill="#00A1A7" d="M28.518 29.208H17.454V62.98h3.037v6.333h-3.037v10.554h16.648l-2.713-24.606z"/><path d="M41.502 15.397c0-4.579-3.682-8.29-8.224-8.29a8.141 8.141 0 0 0-3.535.803C29.545 3.508 25.943 0 21.528 0c-4.542 0-8.225 3.712-8.225 8.29 0 .735.096 1.446.273 2.123a8.135 8.135 0 0 0-3.798-.938c-4.13 0-7.546 3.07-8.133 7.067h39.777c.051-.374.08-.755.08-1.145z" fill="#ACABB1"/><path fill="#FFF" d="M37.243 62.98h6.282v6.332h-6.282zm23.034 0h6.282v6.332h-6.282zm-46.068 6.333h6.282V62.98h-6.282z"/><path fill="#565659" d="M28.518 29.208h2.443v-6.333H3.739v6.333h13.715z"/></g></svg>