<svg width="1074" height="165" viewBox="0 0 1074 165" xmlns="http://www.w3.org/2000/svg"><title>svg/bg</title><g transform="rotate(-30 98.61 35.406)" stroke-width="3" fill="none" fill-rule="evenodd" stroke-linecap="round" opacity=".25" stroke-linejoin="round"><path d="M688.003 501.847c4.142-7.175 1.684-16.348-5.49-20.49-7.175-4.143-16.349-1.685-20.491 5.49M265.508 138.45c5.502-.48 9.572-5.331 9.09-10.833-.481-5.502-5.331-9.572-10.833-9.09M702.609 366.36c5.502-.482 9.572-5.332 9.09-10.834-.481-5.502-5.332-9.572-10.833-9.09" stroke="#FFC107"/><path d="M901.112 584.953a9.5 9.5 0 0 0-6.186 17.965M512.24 338.498a9.5 9.5 0 0 0-6.185 17.965" stroke="#AE25B5"/><path d="M388.767 189.695c1.937-7.77-2.792-15.64-10.562-17.577-7.77-1.938-15.64 2.79-17.577 10.561m466.773 387.279c1.937-7.77-2.791-15.64-10.561-17.578-7.77-1.937-15.64 2.792-17.577 10.562" stroke="#07FF98"/><path d="M407.712 328.859h20" stroke="#0095DA"/><path d="M183.5 198.5h20" stroke="#20FF07"/><path d="M898.141 533.859h30M0 102.5h30m694.936 331.359h30" stroke="#07FF98"/><path d="M563.692 433.141h30M95 46.5h30" stroke="#FFC107"/><circle stroke="#20FF07" cx="479.872" cy="377.672" r="7.5"/><circle stroke="#0095DA" cx="10" cy="5" r="5"/><circle stroke="#AE25B5" cx="461.25" cy="276.756" r="10"/><circle stroke="#AE25B5" cx="244" cy="255" r="10"/><circle stroke="#0095DA" cx="821.428" cy="448.91" r="10"/><path stroke="#0095DA" d="M920.34 489.321h10v10h-10zm-585.718-197.02h14v14h-14z"/><path stroke="#20FF07" d="M565.269 284.321h14v14h-14z"/><path stroke="#FFC107" d="M79.584 108.064h20v20h-20z"/></g></svg>