<svg xmlns="http://www.w3.org/2000/svg" width="112.031" height="100" viewBox="0 0 112.031 100"><defs><style>.cls-1{fill:#f3efe7;fill-rule:evenodd}</style></defs><path id="история" class="cls-1" d="M878.171 7410.01c-28.023 0-50.822 22.42-50.818 49.85a56.962 56.962 0 0 0 1.824 15.51l-6.846-3.93a3.6 3.6 0 0 0-4.865 1.27 3.472 3.472 0 0 0 1.283 4.78l16.042 9.19a.447.447 0 0 0 .1.04 3.336 3.336 0 0 0 .531.22c.125.04.247.09.372.12.154.03.3.04.462.06.11.01.219.04.328.04.062 0 .12-.02.184-.02s.111.01.171 0a2.23 2.23 0 0 0 .254-.06 4.109 4.109 0 0 0 .5-.11 3.114 3.114 0 0 0 .406-.17 2.468 2.468 0 0 0 .425-.23 4.312 4.312 0 0 0 .358-.26 4.477 4.477 0 0 0 .348-.34 2.622 2.622 0 0 0 .28-.36c.048-.07.111-.12.154-.19a1.533 1.533 0 0 0 .058-.17c.048-.09.122-.18.164-.28l6.382-15.54a3.475 3.475 0 0 0-1.962-4.55 3.577 3.577 0 0 0-4.628 1.93l-3.278 7.98a50.992 50.992 0 0 1-1.931-14.79c0-23.71 19.609-43 43.708-43s43.708 19.29 43.708 43-19.608 42.99-43.708 42.99a3.5 3.5 0 1 0 0 7c28.025 0 50.821-22.43 50.821-49.99s-22.804-49.99-50.827-49.99zm-1.362 56.71a3.572 3.572 0 0 0 1.119.23c.079 0 .157.04.236.04a3.547 3.547 0 0 0 1.207-.23c.107-.04.208-.09.312-.14a3.524 3.524 0 0 0 .816-.54 1.762 1.762 0 0 0 .182-.11l22.2-21.84a3.459 3.459 0 0 0 0-4.95 3.59 3.59 0 0 0-5.029 0l-20.517 20.18-18.414-7.58a3.573 3.573 0 0 0-4.656 1.87 3.484 3.484 0 0 0 1.9 4.58l20.616 8.49h.021z" transform="translate(-816.969 -7410)"/></svg>