<svg xmlns="http://www.w3.org/2000/svg" width="98" height="115" viewBox="0 0 98 115"><defs><style>.cls-1{fill:#f3efe7;fill-rule:evenodd}</style></defs><path id="личные" class="cls-1" d="M237.582 7463.96h.764c6.99-.11 12.645-2.57 16.82-7.26 9.185-10.33 7.658-28.05 7.491-29.74-.6-12.7-6.608-18.77-11.571-21.6a26.5 26.5 0 0 0-12.836-3.36h-.405a26.644 26.644 0 0 0-12.836 3.26c-5.01 2.84-11.118 8.91-11.714 21.7-.167 1.69-1.694 19.41 7.491 29.74 4.152 4.69 9.806 7.15 16.796 7.26zm-17.917-36.41c0-.07.024-.14.024-.19.787-17.07 12.931-18.91 18.132-18.91h.286c6.442.15 17.393 2.77 18.132 18.91a.467.467 0 0 0 .024.19c.024.17 1.694 16.36-5.893 24.89-3.006 3.38-7.014 5.05-12.287 5.09h-.238c-5.249-.04-9.281-1.71-12.263-5.09-7.563-8.48-5.941-24.74-5.917-24.89zm67.328 65.8v-.07c0-.19-.024-.38-.024-.59-.143-4.72-.454-15.75-10.808-19.27l-.238-.07a69.007 69.007 0 0 1-19.8-9 3.215 3.215 0 1 0-3.7 5.26 74.593 74.593 0 0 0 21.783 9.93c5.559 1.98 6.179 7.91 6.346 13.34a4.69 4.69 0 0 0 .024.59 43.182 43.182 0 0 1-.5 7.36c-3.865 2.19-19.015 9.76-42.062 9.76-22.952 0-38.2-7.59-42.086-9.78a40.865 40.865 0 0 1-.5-7.36c0-.19.024-.38.024-.6.167-5.43.787-11.36 6.346-13.33a74.786 74.786 0 0 0 21.783-9.94 3.215 3.215 0 0 0-3.7-5.26 67.964 67.964 0 0 1-19.8 9c-.095.03-.167.05-.238.08-10.355 3.54-10.665 14.57-10.808 19.26a4.772 4.772 0 0 1-.024.6v.07c-.024 1.24-.048 7.59 1.217 10.79a3.065 3.065 0 0 0 1.241 1.5c.715.47 17.869 11.38 46.571 11.38s45.855-10.93 46.571-11.38a3.2 3.2 0 0 0 1.241-1.5c1.188-3.17 1.165-9.53 1.141-10.77z" transform="translate(-189 -7402)"/></svg>