<svg width="654" height="50" viewBox="0 0 654 50" xmlns="http://www.w3.org/2000/svg"><title>svg/catalog_bg</title><g fill="#FFF9C4" fill-rule="evenodd"><path d="M99.06 16h62.442a6.5 6.5 0 0 1 0 13H99.06h12.442a6.5 6.5 0 0 0 0-13H99.06zM80.12 9.5A6.5 6.5 0 0 1 86.618 3h74.884a6.5 6.5 0 0 1 0 13H86.618a6.504 6.504 0 0 1-6.498-6.5zm-20 26a6.5 6.5 0 0 1 6.498-6.5h74.884a6.5 6.5 0 0 1 0 13H66.618a6.504 6.504 0 0 1-6.498-6.5zm-60 0c0-3.59 2.91-6.5 6.49-6.5h24.9c3.584 0 6.49 2.917 6.49 6.5 0 3.59-2.91 6.5-6.49 6.5H6.61C3.026 42 .12 39.083.12 35.5zM498.06 24h-67.442a6.5 6.5 0 0 0 0 13h67.442-7.442a6.5 6.5 0 0 1 0-13h7.442zm-81.94-6.5a6.5 6.5 0 0 1 6.498-6.5h74.884a6.5 6.5 0 0 1 0 13h-74.884a6.504 6.504 0 0 1-6.498-6.5zm18 26a6.5 6.5 0 0 1 6.498-6.5h74.884a6.5 6.5 0 0 1 0 13h-74.884a6.504 6.504 0 0 1-6.498-6.5zm172-26c0-3.59 2.905-6.5 6.507-6.5h34.866A6.508 6.508 0 0 1 654 17.5c0 3.59-2.905 6.5-6.507 6.5h-34.866a6.508 6.508 0 0 1-6.507-6.5zm-72 13c0-3.59 2.905-6.5 6.501-6.5H555.5a6.505 6.505 0 0 1 6.5 6.5c0 3.59-2.905 6.5-6.501 6.5H540.62a6.505 6.505 0 0 1-6.501-6.5z"/><rect x="130" width="338" height="50" rx="25"/></g></svg>