<svg xmlns="http://www.w3.org/2000/svg" width="17" height="20" viewBox="0 0 17 20"><defs><style>.cls-1{fill:#e4e4e4;fill-rule:evenodd}</style></defs><path class="cls-1" d="M15 8h-1V3H3v5H2C.83 8 0 7.69 0 6.534V2.1A2.109 2.109 0 0 1 2.12 0h12.76A2.109 2.109 0 0 1 17 2.1v4.443C17 7.7 16.17 8 15 8zM7.6 6.045a1.277 1.277 0 0 1 1.79 0l4.45 4.393a1.483 1.483 0 0 1-.24 2.3 1.56 1.56 0 0 1-1.93-.233l-1.66-1.64v7.641a1.51 1.51 0 0 1-3.02 0v-7.641l-1.66 1.64a1.559 1.559 0 0 1-1.94.233 1.483 1.483 0 0 1-.24-2.3z"/></svg>