<svg xmlns="http://www.w3.org/2000/svg" width="15" height="14" viewBox="0 0 15 14"><defs><style>.cls-1{fill:#ff6374;fill-rule:evenodd}</style></defs><path id="Forma_1" data-name="Forma 1" class="cls-1" d="M152.759 485.045a3.193 3.193 0 1 1 3.241-3.193 3.221 3.221 0 0 1-3.241 3.193zm0-4.7a1.509 1.509 0 1 0 1.532 1.509 1.522 1.522 0 0 0-1.532-1.511zm-6.695 5.2a.855.855 0 0 1-.762.46.865.865 0 0 1-.387-.091.837.837 0 0 1-.374-1.132l6.359-12.322a.862.862 0 0 1 1.149-.369.836.836 0 0 1 .374 1.132zm-1.823-6.2a3.193 3.193 0 1 1 3.241-3.193 3.221 3.221 0 0 1-3.241 3.188zm0-4.7a1.509 1.509 0 1 0 1.532 1.509 1.522 1.522 0 0 0-1.532-1.516z" transform="translate(-141 -472)"/></svg>