<svg width="82" height="82" viewBox="0 0 82 82" xmlns="http://www.w3.org/2000/svg"><title>svg/email</title><g fill="none"><path d="M74.313 82H7.686C3.449 82 0 78.552 0 74.312v-41c0-2.247.96-4.354 2.638-5.79a2.55 2.55 0 0 1 3.078-.19l73.396 48.687a2.582 2.582 0 0 1 1.141 1.957c.055.79-.26 1.567-.85 2.092A7.638 7.638 0 0 1 74.312 82z" fill="#FFDE33"/><path d="M41 50.74V82h33.313a7.637 7.637 0 0 0 5.09-1.932c.59-.525.905-1.301.85-2.092a2.582 2.582 0 0 0-1.14-1.957L41 50.739z" fill="#FFBC33"/><path d="M81.232 30.134c-.36-.87-.924-1.691-1.64-2.407-.103-.155-.257-.255-.411-.36a2.714 2.714 0 0 0-2.972-.1L61.5 37.057 39.565 51.66c-.717.511-1.127 1.282-1.127 2.153 0 .87.41 1.641 1.127 2.152l38.078 25.264C80.36 79.95 82 77.235 82 74.313v-41a7.093 7.093 0 0 0-.768-3.179z" fill="#FCB33B"/><path d="M.678 30.14c1.283-2.863 4.074-4.515 7.01-4.515h10.25a2.561 2.561 0 0 1 2.562 2.563v10.3a2.566 2.566 0 0 1-2.563 2.562c-.495 0-.985-.145-1.411-.425L.678 30.14zm78.913-2.413c-.102-.155-.256-.255-.41-.36a7.66 7.66 0 0 0-4.868-1.742h-10.25a2.537 2.537 0 0 0-2.563 2.563v10.25c0 .92.513 1.791 1.333 2.257.41.205.819.305 1.23.305.512 0 .973-.155 1.435-.41l15.734-10.456c-.36-.87-.924-1.691-1.64-2.407z" fill="#F69838"/><path d="M79.591 27.727c.376.375.702.78.986 1.206-.324-.41-.602-.876-.986-1.206z" fill="#5C5F66"/><path d="M41.002 56.89L15.375 39.859V7.688A7.687 7.687 0 0 1 23.063 0h35.874a7.687 7.687 0 0 1 7.688 7.688v32.12L41.002 56.892zm23.06-18.453h.05-.05z" fill="#E6EEFF"/><path d="M26.906 71.75H12.813a2.561 2.561 0 0 1-2.563-2.563v-9.289a2.561 2.561 0 0 1 2.563-2.562h14.093a2.561 2.561 0 0 1 2.563 2.562v9.29a2.561 2.561 0 0 1-2.563 2.562z" fill="#FFF"/><path d="M79.591 27.727c.376.375.702.78.986 1.206-.324-.41-.602-.876-.986-1.206z" fill="#5C5F66"/><path d="M58.938 0H41v56.89h.003l25.622-17.08V7.688A7.689 7.689 0 0 0 58.937 0z" fill="#DAE2F2"/><path d="M38.438 15.055h-10.25a2.402 2.402 0 0 1 0-4.805h10.25a2.402 2.402 0 0 1 0 4.805z" fill="#A1A7B3"/><path d="M38.438 15.055h-10.25a2.402 2.402 0 0 1 0-4.805h10.25a2.402 2.402 0 0 1 0 4.805zm15.375 20.5H28.186a2.402 2.402 0 0 1 0-4.805h25.625a2.402 2.402 0 0 1 0 4.805z" fill="#A1A7B3"/><path d="M41 35.555h12.813a2.402 2.402 0 0 0 0-4.805H41v4.805z" fill="#9DA1A9"/><path d="M53.813 25.305H28.186a2.402 2.402 0 0 1 0-4.805h25.625a2.402 2.402 0 0 1 0 4.805z" fill="#A1A7B3"/><path d="M41 25.305h12.813a2.402 2.402 0 0 0 0-4.805H41v4.805z" fill="#9DA1A9"/></g></svg>