<svg xmlns="http://www.w3.org/2000/svg" width="14" height="13" viewBox="0 0 14 13"><defs><style>.cls-1{fill:#fff;fill-rule:evenodd}</style></defs><path class="cls-1" d="M13.67 9.361l-1 2.915a1.675 1.675 0 0 1-1.38.724H7.67a3.377 3.377 0 0 1-2.4-1H2c-1.58 0-2-.494-2-2V8c0-2.084.76-2 1-2h3a.838.838 0 0 0 .52-.43 4.213 4.213 0 0 1 .98-1.715L9.09.104a.327.327 0 0 1 .24-.1h.26A1.393 1.393 0 0 1 11 1.381a1.324 1.324 0 0 1-.15.615L9.78 4.083a.323.323 0 0 0 .02.317.306.306 0 0 0 .28.154H12a1.312 1.312 0 0 1 1.33 1.3v.876l.34.488a1.911 1.911 0 0 1 0 2.143z"/></svg>