<svg xmlns="http://www.w3.org/2000/svg" width="14" height="13" viewBox="0 0 14 13"><defs><style>.cls-1{fill:#61c1ef;fill-rule:evenodd}</style></defs><path class="cls-1" d="M13.667 9.36l-.994 2.916a1.676 1.676 0 0 1-1.387.724H7.667a3.359 3.359 0 0 1-2.4-1H2c-1.579 0-2-.494-2-2V8c0-2.084.76-2 1-2h3a.867.867 0 0 0 .521-.431 4.163 4.163 0 0 1 .978-1.715L9.089.103a.34.34 0 0 1 .244-.1h.255A1.4 1.4 0 0 1 11 1.376a1.362 1.362 0 0 1-.149.616L9.78 4.079a.314.314 0 0 0 .015.316.329.329 0 0 0 .284.155H12a1.318 1.318 0 0 1 1.333 1.3v.877l.334.488a1.9 1.9 0 0 1 0 2.145z"/></svg>