<svg id="Layer_1" xmlns="http://www.w3.org/2000/svg" viewBox="0 0 30 30"><style>.st0{fill:#e4b5ff}</style><path class="st0" d="M27.3 11.7c2.4 7.4-1.7 15.2-9.1 17.6-7.3 2.4-15.2-1.7-17.5-9-2.4-7.4 1.7-15.3 9-17.6 2.8-.9 5.8-.9 8.5 0 2.1-2.9 6.2-3.5 9.1-1.4 2.9 2.1 3.5 6.2 1.4 9.1-.3.4-.8.9-1.4 1.3zM23.5 1c-2 0-3.9 1.1-4.8 2.9-6.7-2.6-14.3.7-16.9 7.4s.7 14.3 7.4 16.9 14.3-.7 16.9-7.4c1.2-3 1.2-6.4 0-9.4 2.7-1.4 3.7-4.8 2.2-7.4-.9-1.9-2.8-3-4.8-3z"/><path class="st0" d="M27 7h-2v2h-2V7h-2V5h2V3h2v2h2zm-6.1 8.9c-.3 1.2-.9 2.2-1.8 3L14.5 23 10 18.9c-.9-.8-1.5-1.8-1.8-3-.5-2.1.7-4.3 2.8-4.8.2 0 .4-.1.6-.1 1.2 0 2.3.7 2.9 1.7.6-1.1 1.8-1.7 3-1.7 2.2.2 3.7 2.2 3.5 4.4 0 .2-.1.4-.1.5z"/></svg>