<svg xmlns="http://www.w3.org/2000/svg" width="35" height="35" viewBox="0 0 35 35"><defs><style>.cls-1{fill:#dedede;fill-rule:evenodd}</style></defs><path class="cls-1" d="M17.5 35A17.4 17.4 0 0 1 5 29.691V33H4v-5h5v1H5.723a16.47 16.47 0 0 0 27.443-16.658l.878-.507A17.466 17.466 0 0 1 17.5 35zm6.479-9H9.988l.845-14.941h12.3zM13.518 10.093v-.537a3.467 3.467 0 1 1 6.932 0v.537h-1.9v-.537a1.566 1.566 0 1 0-3.131 0v.537h-1.9zM27 8V7h3.173a16.469 16.469 0 0 0-27.7 17.289l-.868.5A17.466 17.466 0 0 1 31 6.432V3h1v5h-5z"/></svg>