<svg xmlns="http://www.w3.org/2000/svg" width="15" height="14" viewBox="0 0 15 14"><defs><style>.cls-1{fill:#ff6374;fill-rule:evenodd}</style></defs><path id="Forma_1" data-name="Forma 1" class="cls-1" d="M1081.05 439.091a.862.862 0 0 0-1.15.369l-6.36 12.316a.834.834 0 0 0 .38 1.132.824.824 0 0 0 .38.091.853.853 0 0 0 .76-.46l6.36-12.315a.839.839 0 0 0-.37-1.133zm-4.57 4.056a3.24 3.24 0 1 0-3.24 3.193 3.219 3.219 0 0 0 3.24-3.193zm-3.24 1.509a1.509 1.509 0 1 1 1.53-1.509 1.524 1.524 0 0 1-1.53 1.509zm8.52 1a3.193 3.193 0 1 0 3.24 3.193 3.219 3.219 0 0 0-3.24-3.19zm0 4.7a1.509 1.509 0 1 1 1.53-1.509 1.517 1.517 0 0 1-1.53 1.514z" transform="translate(-1070 -439)"/></svg>