<svg xmlns="http://www.w3.org/2000/svg" width="22" height="18" viewBox="0 0 22 18"><defs><style>.cls-1{fill:#fff;fill-rule:evenodd}</style></defs><path id="Twitter_Icon" data-name="Twitter Icon" class="cls-1" d="M987 6757.13a9.027 9.027 0 0 1-2.592.72 4.526 4.526 0 0 0 1.984-2.52 8.951 8.951 0 0 1-2.866 1.11 4.471 4.471 0 0 0-3.294-1.44 4.551 4.551 0 0 0-4.4 5.58 12.785 12.785 0 0 1-9.3-4.75 4.577 4.577 0 0 0 1.4 6.07 4.431 4.431 0 0 1-2.044-.57v.06a4.527 4.527 0 0 0 3.621 4.45 4.251 4.251 0 0 1-1.189.16 4.736 4.736 0 0 1-.849-.08 4.522 4.522 0 0 0 4.215 3.16 9.067 9.067 0 0 1-5.6 1.94 9.572 9.572 0 0 1-1.077-.06 12.82 12.82 0 0 0 19.758-10.89c0-.2 0-.39-.013-.59a9.2 9.2 0 0 0 2.252-2.35z" transform="translate(-965 -6755)"/></svg>