<svg xmlns="http://www.w3.org/2000/svg" width="20" height="12" viewBox="0 0 20 12"><defs><style>.cls-1{fill:#fff;fill-rule:evenodd}</style></defs><path id="ВК" class="cls-1" d="M1095.79 6769.85h1.19a.994.994 0 0 0 .55-.25.9.9 0 0 0 .16-.54s-.02-1.69.72-1.94 1.68 1.62 2.68 2.33a1.747 1.747 0 0 0 1.33.4h2.67s1.4-.11.73-1.25a8.946 8.946 0 0 0-1.98-2.39c-1.68-1.62-1.45-1.36.56-4.16 1.23-1.71 1.72-2.75 1.57-3.19a1.147 1.147 0 0 0-1.04-.35l-3.02-.01a.692.692 0 0 0-.39.09.859.859 0 0 0-.26.36 18.7 18.7 0 0 1-1.11 2.46c-1.34 2.37-1.88 2.5-2.1 2.35-.5-.34-.38-1.38-.38-2.11 0-2.3.34-3.25-.65-3.5a5.039 5.039 0 0 0-1.4-.15 6.32 6.32 0 0 0-2.5.27c-.34.17-.6.56-.44.58a1.308 1.308 0 0 1 .88.47 3.136 3.136 0 0 1 .3 1.42s.18 2.7-.41 3.03c-.41.23-.96-.24-2.16-2.38a20.5 20.5 0 0 1-1.07-2.34.922.922 0 0 0-.25-.35 1.206 1.206 0 0 0-.46-.2h-2.86a.959.959 0 0 0-.58.21.688.688 0 0 0-.02.53s2.24 5.49 4.77 8.24a6.793 6.793 0 0 0 4.97 2.37z" transform="translate(-1086 -6758)"/></svg>