<?xml version="1.0" standalone="no"?>
<!DOCTYPE svg PUBLIC "-//W3C//DTD SVG 1.1//EN" "http://www.w3.org/Graphics/SVG/1.1/DTD/svg11.dtd" >
<svg xmlns="http://www.w3.org/2000/svg" xmlns:xlink="http://www.w3.org/1999/xlink" version="1.1">
<metadata></metadata>
<defs>
<font id="cera_round_pro_demobold" horiz-adv-x="700" >
<font-face units-per-em="2048" ascent="1655" descent="-393" />
<missing-glyph horiz-adv-x="573" />
<glyph horiz-adv-x="0" />
<glyph horiz-adv-x="682" />
<glyph unicode=" "  horiz-adv-x="573" />
<glyph unicode="&#x09;" horiz-adv-x="573" />
<glyph unicode="&#xa0;" horiz-adv-x="573" />
<glyph unicode="!" horiz-adv-x="706" d="M174 154q0 74 52.5 127t129.5 53q75 0 125.5 -52.5t50.5 -127.5q0 -76 -50 -127.5t-126 -51.5q-78 0 -130 52t-52 127zM195 1206q-3 75 40.5 122.5t118.5 47.5q73 0 117 -48t41 -122l-23 -637q-3 -59 -40.5 -100t-94.5 -41q-60 0 -97.5 41t-39.5 100z" />
<glyph unicode="," horiz-adv-x="552" d="M88 -268q0 17 20.5 140.5t20.5 229.5q0 78 42.5 124t111.5 46q71 0 112 -45t41 -121q0 -63 -25.5 -184t-54.5 -196q-26 -64 -58 -91.5t-79 -27.5q-57 0 -94 35.5t-37 89.5z" />
<glyph unicode="-" d="M78 657q0 50 33 82.5t84 32.5h313q51 0 84 -32.5t33 -82.5t-33 -83t-84 -33h-313q-51 0 -84 33t-33 83z" />
<glyph unicode="." horiz-adv-x="552" d="M86 166q0 79 55.5 134.5t137.5 55.5q81 0 134.5 -55.5t53.5 -134.5q0 -80 -53.5 -135.5t-134.5 -55.5q-83 0 -138 55.5t-55 135.5z" />
<glyph unicode="0" horiz-adv-x="1300" d="M115 686q0 324 142 507t394 183q251 0 393 -183t142 -507q0 -329 -144 -520t-391 -191q-249 0 -392.5 191t-143.5 520zM399 684q0 -224 63.5 -338.5t188.5 -114.5q250 0 250 453q0 221 -62 328.5t-188 107.5q-128 0 -190 -107.5t-62 -328.5z" />
<glyph unicode="1" horiz-adv-x="821" d="M37 1100q0 85 86 121l307 139q50 16 72 16q55 0 94 -41t39 -98v-1120q0 -66 -36.5 -104t-102.5 -38t-102 38t-36 104v923l-131 -57q-31 -14 -63 -14q-53 0 -90 38t-37 93z" />
<glyph unicode="2" horiz-adv-x="1196" d="M92 135q0 66 58 115l413 350q114 96 158.5 167.5t44.5 154.5q0 91 -50.5 144.5t-135.5 53.5q-75 0 -126 -46t-61 -124q-1 -11 -4 -31t-4 -28q-7 -55 -45 -88t-92 -33q-56 0 -94.5 37.5t-42.5 97.5q-6 39 4 103q28 162 159.5 265t313.5 103q201 0 332 -124.5t131 -315.5 q0 -132 -73.5 -250t-248.5 -264l-192 -162h428q58 0 96.5 -36.5t38.5 -92.5q0 -57 -38 -94t-97 -37l-736 -2q-57 0 -97 40t-40 97z" />
<glyph unicode="3" horiz-adv-x="1124" d="M57 270q0 52 37 88.5t90 36.5q55 0 90 -41q106 -123 240 -123q105 0 170.5 57t65.5 152t-71 145t-206 50h-41q-56 0 -92.5 36t-36.5 91q0 31 15 56t51 56l252 228h-392q-54 0 -90.5 35.5t-36.5 89.5t36.5 89.5t90.5 35.5h639q57 0 97.5 -41t40.5 -97q0 -63 -60 -114 l-266 -246q156 -26 254 -140t98 -272q0 -200 -145.5 -333.5t-364.5 -133.5q-134 0 -249 57.5t-193 164.5q-23 38 -23 73z" />
<glyph unicode="4" horiz-adv-x="1181" d="M33 358q0 30 12 60l379 868q18 40 52.5 65t76.5 25q57 0 98 -41t41 -98q0 -22 -10 -49l-307 -711h330v225q0 59 39 99.5t98 40.5q58 0 98.5 -40.5t40.5 -99.5v-225h55q59 0 95 -38.5t36 -90.5q0 -50 -36 -88.5t-95 -38.5h-55v-104q0 -60 -40 -101t-99 -41q-58 0 -97.5 41 t-39.5 101v104h-535q-57 0 -97 40t-40 97z" />
<glyph unicode="5" horiz-adv-x="1155" d="M68 270q0 53 37.5 90t91.5 37q59 0 92 -41q106 -125 248 -125q107 0 174 57.5t67 151.5q0 96 -70 145.5t-206 49.5h-176q-60 0 -100 39.5t-40 99.5v438q0 60 40 100t100 40h540q55 0 91 -35.5t36 -89.5q0 -53 -36 -89t-91 -36h-413v-230h141q129 0 235 -51t170 -150 t64 -227q0 -135 -69 -243t-187 -167t-262 -59q-143 0 -260 59t-193 161q-24 34 -24 75z" />
<glyph unicode="6" horiz-adv-x="1150" d="M78 461q0 114 53.5 222t181.5 253l314 371q63 69 125 69q57 0 97 -38t40 -91q0 -50 -41 -94l-201 -235q175 -9 299.5 -143t124.5 -316q0 -132 -66 -243.5t-180 -176t-250 -64.5q-137 0 -251.5 65t-180 176.5t-65.5 244.5zM352 459q0 -97 64 -163.5t159 -66.5 q94 0 159 66.5t65 163.5t-64.5 162t-159.5 65t-159 -65t-64 -162z" />
<glyph unicode="7" horiz-adv-x="1075" d="M78 1227q0 54 36.5 89.5t92.5 35.5h682q57 0 98 -41t41 -97q0 -38 -16 -65l-615 -1104q-19 -32 -50.5 -51t-67.5 -19q-57 0 -98.5 41.5t-41.5 98.5q0 29 19 67l514 920h-465q-55 0 -92 36t-37 89z" />
<glyph unicode="8" horiz-adv-x="1204" d="M94 360q0 235 266 340q-204 119 -204 318q0 168 126 263t320 95q127 0 227 -40.5t160 -123t60 -194.5q0 -200 -203 -318q262 -107 262 -340q0 -176 -141 -280.5t-365 -104.5q-225 0 -366.5 104.5t-141.5 280.5zM371 371q0 -76 59.5 -123t171.5 -47q113 0 172.5 46.5 t59.5 123.5t-58 124t-174 89q-116 -43 -173.5 -90t-57.5 -123zM414 1006q0 -61 46 -103t142 -86q97 45 143 86.5t46 104.5q0 67 -54 106t-135 39q-82 0 -135 -39t-53 -108z" />
<glyph unicode="9" horiz-adv-x="1150" d="M80 893q0 132 65.5 243t179.5 175.5t250 64.5q137 0 251.5 -64.5t180.5 -176t66 -244.5q0 -114 -53.5 -222t-181.5 -253l-314 -371q-64 -70 -125 -70q-57 0 -97 38t-40 91q0 51 41 95l201 235q-175 9 -299.5 143t-124.5 316zM352 893q0 -97 64 -162t159 -65t159.5 65 t64.5 162t-64.5 163t-159.5 66q-94 0 -158.5 -66t-64.5 -163z" />
<glyph unicode="?" horiz-adv-x="925" d="M66 1079q0 39 28 90q52 100 145.5 153.5t213.5 53.5q170 0 284.5 -98t114.5 -244q0 -75 -38.5 -141t-127.5 -141q-79 -70 -110.5 -113.5t-32.5 -85.5l-2 -18q-5 -45 -40.5 -75t-86.5 -30q-54 0 -92.5 35t-38.5 86v20q0 59 30.5 107.5t120.5 132.5q80 71 105.5 108 t25.5 80q0 52 -35 87.5t-86 35.5q-87 0 -141 -96q-51 -72 -115 -72q-52 0 -87 36t-35 89zM238 154q0 74 52.5 127t129.5 53q75 0 125.5 -52.5t50.5 -127.5q0 -76 -50 -127.5t-126 -51.5q-78 0 -130 52t-52 127z" />
<glyph unicode="A" horiz-adv-x="1355" d="M68 109q0 27 16 73l463 1100q39 94 131 94t131 -94l461 -1100q16 -39 16 -73q0 -56 -38.5 -95t-96.5 -39q-89 0 -131 99l-57 139h-572l-57 -139q-39 -99 -129 -99q-58 0 -97.5 39t-39.5 95zM481 440h389l-192 529z" />
<glyph unicode="B" horiz-adv-x="1269" d="M154 141v1069q0 62 40 102t101 40h338q189 0 308.5 -105t119.5 -272q0 -152 -100 -244q115 -40 178 -126.5t63 -207.5q0 -175 -125 -286t-321 -111h-461q-61 0 -101 40t-40 101zM422 238h313q91 0 142 44.5t51 125.5q0 80 -51 125t-142 45h-313v-340zM422 805h190 q82 0 129 42t47 114t-47 112.5t-129 40.5h-190v-309z" />
<glyph unicode="C" horiz-adv-x="1474" d="M78 676q0 194 95 354.5t260.5 253t365.5 92.5q155 0 293 -62t229 -171q43 -49 43 -103q0 -51 -37.5 -88t-91.5 -37q-59 0 -107 54q-130 151 -329 151q-191 0 -314 -125.5t-123 -320.5q0 -193 123 -318t314 -125q193 0 327 152q50 53 109 53q53 0 90 -37t37 -88t-43 -102 q-90 -109 -228 -171.5t-294 -62.5q-150 0 -283.5 54.5t-229 148t-151 223.5t-55.5 275z" />
<glyph unicode="D" horiz-adv-x="1413" d="M154 141v1069q0 62 40 102t101 40h303q217 0 384 -84t259 -237t92 -351t-93 -353t-260.5 -241t-381.5 -86h-303q-61 0 -101 40t-40 101zM430 250h166q205 0 330 118t125 312q0 195 -122 308.5t-333 113.5h-166v-852z" />
<glyph unicode="E" horiz-adv-x="1171" d="M154 137v1077q0 59 39.5 98.5t97.5 39.5h661q55 0 91 -35.5t36 -89.5q0 -53 -36.5 -89t-90.5 -36h-522v-275h358q52 0 86.5 -33.5t34.5 -84.5q0 -50 -34.5 -83.5t-86.5 -33.5h-358v-342h547q55 0 91 -36t36 -89q0 -54 -36.5 -89.5t-90.5 -35.5h-686q-59 0 -98 39t-39 98z " />
<glyph unicode="F" horiz-adv-x="1093" d="M154 117v1093q0 62 40 102t101 40h637q55 0 91 -35.5t36 -89.5q0 -53 -36.5 -89t-90.5 -36h-502v-338h391q55 0 91 -36t36 -89q0 -54 -36.5 -89.5t-90.5 -35.5h-391v-397q0 -61 -38.5 -101.5t-98.5 -40.5q-61 0 -100 40.5t-39 101.5z" />
<glyph unicode="G" horiz-adv-x="1529" d="M78 676q0 146 56 275.5t152 223t230 147.5t285 54q138 0 267 -51t212 -139q84 -78 84 -146q0 -51 -37.5 -88t-89.5 -37q-61 0 -117 62q-134 143 -323 143q-192 0 -313.5 -123t-121.5 -321q0 -201 125.5 -327t325.5 -126q112 0 204.5 42.5t151.5 119.5v117h-258 q-55 0 -92 34t-37 85q0 52 36.5 86t92.5 34h394q61 0 101 -39.5t40 -101.5v-174q0 -89 -43 -154q-92 -135 -257 -216t-345 -81q-151 0 -285 54.5t-230 147.5t-152 223t-56 276z" />
<glyph unicode="H" horiz-adv-x="1458" d="M154 119v1114q0 62 39 102.5t100 40.5q60 0 98.5 -40.5t38.5 -102.5v-399h598v401q0 62 39 101.5t100 39.5q60 0 99 -40t39 -101v-1116q0 -61 -39.5 -102.5t-98.5 -41.5q-60 0 -99.5 41t-39.5 103v465h-598v-465q0 -61 -39 -102.5t-98 -41.5q-60 0 -99.5 41t-39.5 103z " />
<glyph unicode="I" horiz-adv-x="583" d="M154 117v1118q0 61 39 101t100 40q60 0 98.5 -40.5t38.5 -100.5v-1118q0 -61 -38.5 -101.5t-98.5 -40.5q-61 0 -100 40.5t-39 101.5z" />
<glyph unicode="J" horiz-adv-x="794" d="M10 111q0 52 36.5 87t92.5 35q16 0 48.5 -3t50.5 -3q59 0 93 36t34 99v873q0 61 39 101t100 40q60 0 98.5 -40.5t38.5 -100.5v-875q0 -191 -106.5 -288t-317.5 -97q-75 0 -127 19q-35 15 -57.5 47.5t-22.5 69.5z" />
<glyph unicode="K" horiz-adv-x="1372" d="M154 117v1118q0 61 39 101t100 40q58 0 97.5 -40.5t39.5 -100.5v-1118q0 -60 -39.5 -101t-97.5 -41q-60 0 -99.5 41t-39.5 101zM485 717q0 46 39 88l488 526q45 45 100 45q51 0 88 -37.5t37 -91.5q0 -48 -41 -92l-408 -440l453 -525q35 -41 35 -84q0 -53 -38.5 -92 t-90.5 -39q-62 0 -111 58l-514 592q-37 43 -37 92z" />
<glyph unicode="L" horiz-adv-x="1071" d="M154 141v1094q0 57 39.5 99t99.5 42t98.5 -40.5t38.5 -100.5v-985h481q55 0 91 -36t36 -89q0 -54 -36 -89.5t-91 -35.5h-616q-61 0 -101 40t-40 101z" />
<glyph unicode="M" horiz-adv-x="1630" d="M154 117v1116q0 62 38.5 102.5t96.5 40.5q44 0 77 -24t68 -82l381 -604l381 604q37 59 69 82.5t76 23.5q58 0 97 -40.5t39 -102.5v-1116q0 -60 -40 -101t-98 -41q-60 0 -99.5 41t-39.5 101v667l-254 -399q-30 -46 -60 -67t-71 -21q-75 0 -131 88l-254 403v-671 q0 -60 -39.5 -101t-97.5 -41q-60 0 -99.5 41t-39.5 101z" />
<glyph unicode="N" horiz-adv-x="1458" d="M154 117v1120q0 59 39 99t96 40q33 0 60 -14t40.5 -28t40.5 -48l600 -768l-2 717q0 60 39.5 100.5t99.5 40.5q59 0 98.5 -40.5t39.5 -100.5v-1120q0 -59 -39 -99.5t-97 -40.5q-32 0 -58.5 13.5t-40.5 27.5t-38 43l-602 775v-717q0 -60 -39.5 -101t-97.5 -41 q-60 0 -99.5 41t-39.5 101z" />
<glyph unicode="O" horiz-adv-x="1593" d="M78 676q0 193 95 354t259.5 253.5t362.5 92.5t364 -93t261.5 -254t95.5 -353q0 -144 -56.5 -274t-152.5 -223.5t-229.5 -148.5t-282.5 -55t-282 54.5t-228 148t-151 223.5t-56 275zM362 676q0 -195 122 -320t313 -125q189 0 311.5 125.5t122.5 319.5q0 193 -122.5 318.5 t-311.5 125.5q-191 0 -313 -124.5t-122 -319.5z" />
<glyph unicode="P" horiz-adv-x="1214" d="M154 117v1093q0 62 40 102t101 40h369q217 0 351 -121t134 -316q0 -193 -135.5 -315.5t-349.5 -122.5h-234v-360q0 -60 -39.5 -101t-97.5 -41q-60 0 -99.5 41t-39.5 101zM430 719h232q95 0 149.5 52.5t54.5 143.5q0 88 -54.5 140.5t-149.5 52.5h-232v-389z" />
<glyph unicode="Q" horiz-adv-x="1593" d="M78 676q0 193 95 354t259.5 253.5t362.5 92.5t364 -93t261.5 -254t95.5 -353q0 -163 -70.5 -305.5t-194.5 -239.5q138 -179 312 -263.5t405 -84.5q26 0 59.5 2t40.5 2q54 0 85.5 -29t31.5 -80q0 -75 -74 -102q-72 -29 -190 -29q-278 0 -509.5 119.5t-389.5 343.5 q-110 -35 -227 -35q-149 0 -282 54.5t-228 148t-151 223.5t-56 275zM362 676q0 -194 122.5 -319.5t312.5 -125.5q189 0 311.5 125.5t122.5 319.5t-123 319t-313 125q-189 0 -311 -124.5t-122 -319.5z" />
<glyph unicode="R" horiz-adv-x="1310" d="M154 117v1095q0 60 40 100t101 40h369q217 0 351 -120t134 -314q0 -121 -55.5 -218t-155.5 -155l244 -338q39 -58 39 -105q0 -52 -38 -89.5t-91 -37.5q-72 0 -123 72l-303 430h-2h-234v-360q0 -60 -39.5 -101t-97.5 -41q-60 0 -99.5 41t-39.5 101zM430 721h232 q95 0 149.5 52t54.5 142q0 88 -55 140.5t-149 52.5h-232v-387z" />
<glyph unicode="S" horiz-adv-x="1144" d="M96 264q1 54 38.5 88.5t88.5 34.5q42 0 72 -27q134 -139 289 -139q90 0 141 40.5t51 109.5q0 56 -36.5 89.5t-135.5 78.5l-145 65q-166 76 -247 169t-81 220q0 169 127.5 276t321.5 107q136 0 229.5 -47.5t148.5 -111.5q37 -40 37 -89q0 -51 -39 -86.5t-88 -35.5 q-40 0 -75 28q-51 46 -99.5 71t-113.5 25q-75 0 -121.5 -34.5t-46.5 -96.5q0 -50 32.5 -81.5t124.5 -73.5l154 -68q174 -77 254 -168.5t80 -226.5q0 -184 -133.5 -295t-339.5 -111q-121 0 -242 50t-195 133q-51 51 -51 106z" />
<glyph unicode="T" horiz-adv-x="1198" d="M12 1227q0 54 36.5 89.5t90.5 35.5h920q55 0 91 -35.5t36 -89.5q0 -53 -36.5 -89t-90.5 -36h-322v-985q0 -60 -39.5 -101t-99.5 -41q-58 0 -97.5 41t-39.5 101v985h-322q-54 0 -90.5 36t-36.5 89z" />
<glyph unicode="U" horiz-adv-x="1433" d="M143 559v676q0 60 40 100.5t100 40.5q58 0 97.5 -40.5t39.5 -100.5v-696q0 -141 80.5 -224.5t216.5 -83.5t216.5 83.5t80.5 224.5v696q0 60 39.5 100.5t99.5 40.5q58 0 97.5 -40.5t39.5 -100.5v-676q0 -261 -158.5 -422.5t-414.5 -161.5q-257 0 -415.5 161.5 t-158.5 422.5z" />
<glyph unicode="V" horiz-adv-x="1355" d="M68 1243q0 56 39.5 94.5t97.5 38.5q90 0 129 -98l344 -846l342 846q42 98 131 98q58 0 96.5 -38.5t38.5 -94.5q0 -43 -16 -74l-461 -1099q-41 -95 -131 -95q-93 0 -131 95l-463 1099q-16 37 -16 74z" />
<glyph unicode="W" horiz-adv-x="2121" d="M78 1239q0 57 40.5 97t98.5 40q44 0 79 -24.5t48 -65.5l297 -823l285 809q17 50 52.5 77t82.5 27t82.5 -27t52.5 -77l287 -809l293 821q15 43 49 67.5t80 24.5q58 0 97.5 -40t39.5 -97q0 -30 -14 -68l-414 -1101q-36 -95 -129 -95t-129 95l-295 817l-295 -817 q-36 -95 -127 -95q-95 0 -131 95l-414 1101q-16 39 -16 68z" />
<glyph unicode="X" horiz-adv-x="1255" d="M80 111q0 44 39 100l342 477l-314 453q-38 55 -38 106q0 53 40 91t95 38q71 0 114 -61l271 -397l276 395q45 63 115 63q57 0 96 -38.5t39 -92.5q0 -52 -41 -110l-317 -447l342 -483q37 -53 37 -96q0 -54 -40.5 -94t-97.5 -40q-66 0 -110 60l-299 424l-301 -424 q-44 -60 -113 -60q-55 0 -95 40t-40 96z" />
<glyph unicode="Y" horiz-adv-x="1280" d="M84 1245q0 55 39 93t96 38q84 0 131 -82l291 -503l291 503q46 82 129 82q57 0 96 -38t39 -95q0 -45 -29 -90l-389 -639v-397q0 -60 -39.5 -101t-99.5 -41q-58 0 -97.5 41t-39.5 101v397l-387 639q-31 44 -31 92z" />
<glyph unicode="Z" horiz-adv-x="1204" d="M41 125q0 37 37 86l684 891h-520q-55 0 -92 36t-37 89q0 54 36.5 89.5t92.5 35.5h776q54 0 90.5 -36t36.5 -89q0 -39 -35 -88l-684 -889h610q55 0 91 -36t36 -89q0 -54 -36.5 -89.5t-90.5 -35.5h-866q-55 0 -92 36t-37 89z" />
<glyph unicode="a" horiz-adv-x="1116" d="M74 279q0 137 102.5 215.5t280.5 78.5h254v45q0 85 -49.5 132t-141.5 47q-106 0 -194 -76q-44 -33 -82 -33q-50 0 -84.5 33.5t-34.5 79.5q0 56 57 110q64 60 160 92.5t207 32.5q209 0 323.5 -113.5t114.5 -320.5v-487q0 -60 -38 -99t-95 -39q-50 0 -87 30.5t-46 76.5 q-115 -109 -297 -109q-156 0 -253 84.5t-97 219.5zM352 289q0 -51 39.5 -81t106.5 -30q91 0 152 57.5t61 143.5v12h-217q-142 0 -142 -102z" />
<glyph unicode="b" horiz-adv-x="1288" d="M137 117v1302q0 60 39.5 101t99.5 41q59 0 98.5 -40.5t39.5 -101.5v-504q111 121 303 121q214 0 352.5 -150t138.5 -380t-138.5 -380.5t-352.5 -150.5q-199 0 -309 129q-4 -57 -42 -93t-92 -36q-58 0 -97.5 41t-39.5 101zM410 506q0 -125 70.5 -202t185.5 -77t188.5 79 t73.5 202q0 120 -74 199t-188 79t-185 -77.5t-71 -202.5z" />
<glyph unicode="c" horiz-adv-x="1130" d="M80 508q0 146 71.5 267.5t196.5 191t275 69.5q128 0 239 -55t170 -145q25 -40 25 -74q0 -51 -36 -87t-87 -36q-59 0 -94 43q-85 102 -213 102q-117 0 -192 -77.5t-75 -198.5q0 -123 75 -201t192 -78q120 0 213 103q38 43 94 43q51 0 87 -36t36 -87q0 -34 -23 -70 q-64 -98 -170.5 -152.5t-240.5 -54.5q-228 0 -385.5 155t-157.5 378z" />
<glyph unicode="d" horiz-adv-x="1288" d="M80 506q0 230 138.5 380t352.5 150q192 0 303 -121v504q0 60 40 101t100 41q59 0 98 -40.5t39 -101.5v-1304q0 -60 -38.5 -100t-96.5 -40q-54 0 -93 37.5t-42 91.5q-110 -129 -310 -129q-214 0 -352.5 150.5t-138.5 380.5zM360 508q0 -123 74 -202t189 -79t185.5 77 t70.5 202t-71 202.5t-185 77.5t-188.5 -79t-74.5 -199z" />
<glyph unicode="e" horiz-adv-x="1165" d="M80 506q0 226 151 378t375 152q207 0 344 -135t137 -340v-6q0 -64 -41.5 -102.5t-109.5 -38.5h-578q25 -96 99 -148.5t186 -52.5q119 0 211 59q32 19 59 19q47 0 80 -32t33 -79q0 -63 -70 -110q-143 -95 -321 -95q-118 0 -221 40.5t-176.5 111t-115.5 169t-42 210.5z M358 608h461q-3 91 -63 148t-156 57q-90 0 -154.5 -55t-87.5 -150z" />
<glyph unicode="f" d="M20 897q0 51 34 84t85 33h45v166q0 180 100 280.5t277 100.5q75 0 131 -27q32 -14 51 -43.5t19 -67.5q0 -51 -33 -81.5t-88 -30.5q-3 0 -14 1t-19 1q-70 0 -108.5 -41.5t-38.5 -116.5v-141h127q51 0 84 -33t33 -84t-33 -84t-84 -33h-127v-663q0 -61 -39 -101.5t-98 -40.5 q-60 0 -100 41t-40 101v663h-45q-51 0 -85 33t-34 84z" />
<glyph unicode="g" horiz-adv-x="1292" d="M84 535q0 221 135.5 361t349.5 140q206 0 316 -129q3 55 42 92t93 37q58 0 96.5 -39.5t38.5 -99.5v-784q0 -239 -138 -372.5t-386 -133.5q-257 0 -436 141q-58 42 -58 100q0 52 36.5 88.5t88.5 36.5q33 0 74 -26q130 -90 272 -90q128 0 199.5 62.5t71.5 176.5v56 q-112 -121 -310 -121q-214 0 -349.5 141.5t-135.5 362.5zM365 537q0 -119 74 -196t188 -77q115 0 185.5 76t70.5 199q0 119 -69.5 190.5t-186.5 71.5q-116 0 -189 -73.5t-73 -190.5z" />
<glyph unicode="h" horiz-adv-x="1198" d="M137 117v1302q0 60 39.5 101t99.5 41q59 0 98.5 -40.5t39.5 -101.5v-493q110 110 278 110q170 0 273.5 -111.5t103.5 -295.5v-512q0 -62 -38.5 -102t-98.5 -40q-58 0 -97.5 41t-39.5 101v473q0 89 -52 142.5t-137 53.5t-138.5 -54.5t-53.5 -141.5v-473 q0 -61 -39.5 -101.5t-98.5 -40.5q-60 0 -99.5 41t-39.5 101z" />
<glyph unicode="i" horiz-adv-x="550" d="M102 1382q0 70 51 119t123 49q70 0 121.5 -49t51.5 -119q0 -68 -51.5 -116.5t-121.5 -48.5q-72 0 -123 48t-51 117zM137 117v780q0 60 39.5 99.5t99.5 39.5q59 0 98.5 -39.5t39.5 -99.5v-780q0 -60 -40 -101t-100 -41q-58 0 -97.5 41t-39.5 101z" />
<glyph unicode="j" horiz-adv-x="550" d="M-162 -262q0 51 33 85t84 34q5 0 13.5 -1t13.5 -1q81 0 118 39.5t37 142.5v860q0 60 39.5 99.5t99.5 39.5q59 0 98.5 -39.5t39.5 -99.5v-909q0 -184 -101 -282.5t-278 -98.5q-57 0 -113 18q-84 33 -84 113zM102 1382q0 70 51 119t123 49q70 0 121.5 -49t51.5 -119 q0 -68 -51.5 -116.5t-121.5 -48.5q-72 0 -123 48t-51 117z" />
<glyph unicode="k" horiz-adv-x="1146" d="M137 117v1302q0 60 39.5 101t99.5 41t99 -40t39 -102v-1302q0 -61 -39.5 -101.5t-98.5 -40.5q-60 0 -99.5 41t-39.5 101zM459 553q0 47 49 102l323 338q40 43 97 43q54 0 90.5 -35.5t36.5 -87.5q0 -53 -45 -98l-258 -262l290 -365q33 -42 33 -86q0 -54 -36 -90.5 t-89 -36.5q-62 0 -102 52l-346 426q-43 57 -43 100z" />
<glyph unicode="l" horiz-adv-x="550" d="M137 117v1302q0 60 39.5 101t99.5 41q58 0 98 -41t40 -101v-1302q0 -60 -40 -101t-98 -41q-60 0 -99.5 41t-39.5 101z" />
<glyph unicode="m" horiz-adv-x="1826" d="M137 117v780q0 60 39 99.5t98 39.5q47 0 82 -28t47 -74q108 102 275 102q199 0 301 -145q61 68 149.5 106.5t188.5 38.5q177 0 280 -109.5t103 -297.5v-512q0 -61 -39 -101.5t-98 -40.5q-60 0 -100 41t-40 101v473q0 91 -48.5 143.5t-131.5 52.5t-134.5 -52.5 t-51.5 -137.5v-479q0 -61 -39 -101.5t-98 -40.5q-60 0 -100 41t-40 101v473q0 90 -49 143t-131 53q-85 0 -135.5 -53.5t-50.5 -142.5v-473q0 -61 -39.5 -101.5t-98.5 -40.5q-60 0 -99.5 41t-39.5 101z" />
<glyph unicode="n" horiz-adv-x="1198" d="M137 117v780q0 60 39 99.5t98 39.5q47 0 82.5 -29t46.5 -75q113 104 285 104q173 0 277 -110.5t104 -296.5v-512q0 -62 -38.5 -102t-98.5 -40q-58 0 -97.5 41t-39.5 101v475q0 88 -52 142t-137 54t-138.5 -55t-53.5 -141v-475q0 -61 -39.5 -101.5t-98.5 -40.5 q-60 0 -99.5 41t-39.5 101z" />
<glyph unicode="o" horiz-adv-x="1245" d="M80 508q0 146 71.5 267.5t196.5 191t275 69.5q149 0 274 -70t197.5 -191.5t72.5 -266.5t-72.5 -267.5t-198 -193t-275.5 -70.5q-149 0 -273.5 70.5t-196 192.5t-71.5 268zM360 506q0 -120 74.5 -197.5t188.5 -77.5q113 0 187.5 78.5t74.5 196.5q0 120 -74.5 199 t-187.5 79q-114 0 -188.5 -78.5t-74.5 -199.5z" />
<glyph unicode="p" horiz-adv-x="1288" d="M137 -254v1155q0 59 39.5 98t97.5 39q55 0 93 -37t41 -94q110 129 309 129q214 0 352.5 -149t138.5 -379q0 -231 -139 -382t-352 -151q-193 0 -303 123v-352q0 -60 -39.5 -99.5t-98.5 -39.5q-60 0 -99.5 39.5t-39.5 99.5zM410 508q0 -125 71 -203t185 -78t188 79t74 200 q0 123 -73.5 201.5t-188.5 78.5t-185.5 -76.5t-70.5 -201.5z" />
<glyph unicode="q" horiz-adv-x="1288" d="M80 508q0 230 138.5 379t352.5 149q200 0 310 -129q5 56 43 92.5t92 36.5q58 0 96.5 -39.5t38.5 -99.5v-1151q0 -60 -39 -99.5t-98 -39.5q-60 0 -100 39.5t-40 99.5v352q-110 -123 -303 -123q-213 0 -352 151t-139 382zM360 506q0 -121 74.5 -200t188.5 -79t185 78 t71 203t-70.5 201.5t-185.5 76.5q-114 0 -188.5 -78.5t-74.5 -201.5z" />
<glyph unicode="r" horiz-adv-x="794" d="M137 117v780q0 60 39 99.5t98 39.5q54 0 91.5 -35.5t42.5 -89.5q101 115 247 115q56 0 90.5 -34t34.5 -91q0 -55 -35 -91t-94 -42q-111 -8 -174 -77t-63 -185v-389q0 -61 -39.5 -101.5t-98.5 -40.5q-60 0 -99.5 41t-39.5 101z" />
<glyph unicode="s" horiz-adv-x="931" d="M53 207q0 47 34 82t81 35q41 0 80 -31q104 -90 221 -90q56 0 92.5 21.5t36.5 62.5q0 17 -6.5 29.5t-24 24.5t-30 18t-43.5 20l-109 45q-140 57 -208 126.5t-68 182.5q0 143 103.5 224t268.5 81q193 0 320 -108q49 -37 49 -94q0 -47 -33.5 -81t-79.5 -34q-28 0 -73 29 q-87 61 -185 61q-108 0 -108 -72q0 -29 23.5 -48t82.5 -42l98 -41q147 -60 216 -128.5t69 -180.5q0 -152 -111.5 -238t-283.5 -86q-111 0 -207 39t-166 107q-39 33 -39 86z" />
<glyph unicode="t" horiz-adv-x="851" d="M16 897q0 51 34 84t85 33h58v139q0 60 39 99.5t100 39.5q59 0 98 -39.5t39 -99.5v-139h186q51 0 84 -33t33 -84t-33 -84t-84 -33h-186v-399q0 -85 42.5 -121.5t139.5 -36.5q9 0 22 1t17 1q55 0 88 -30.5t33 -81.5q0 -78 -70 -111q-66 -27 -143 -27q-198 0 -301.5 97.5 t-103.5 283.5v424h-58q-51 0 -85 33t-34 84z" />
<glyph unicode="u" horiz-adv-x="1187" d="M127 446v451q0 60 39.5 99.5t99.5 39.5q59 0 98 -39.5t39 -99.5v-473q0 -85 54 -140t139 -55q83 0 135.5 55t52.5 140v473q0 60 39.5 99.5t100.5 39.5q59 0 98 -39.5t39 -99.5v-451q0 -209 -130 -340t-335 -131q-207 0 -338 131t-131 340z" />
<glyph unicode="v" horiz-adv-x="1144" d="M43 903q0 54 40 93.5t95 39.5q81 0 121 -78l274 -565l273 565q40 78 123 78q54 0 93.5 -39.5t39.5 -93.5q0 -27 -21 -74l-381 -768q-20 -41 -53.5 -63.5t-73.5 -22.5q-85 0 -127 86l-380 768q-23 45 -23 74z" />
<glyph unicode="w" horiz-adv-x="1753" d="M37 903q0 55 38.5 94t94.5 39q84 0 121 -75l246 -539l206 512q43 102 134 102t131 -102l209 -514l245 541q37 75 121 75q55 0 94 -39t39 -94q0 -35 -14 -67l-352 -775q-42 -86 -125 -86q-86 0 -125 86l-223 514l-224 -514q-42 -86 -125 -86t-125 86l-352 775 q-14 32 -14 67z" />
<glyph unicode="x" horiz-adv-x="1087" d="M80 109q0 47 43 102l246 305l-222 285q-45 61 -45 102q0 56 39.5 94.5t96.5 38.5q66 0 110 -59l197 -254l200 254q47 59 113 59q56 0 94.5 -39t38.5 -94q0 -49 -45 -102l-225 -283l244 -307q41 -52 41 -102q0 -56 -38.5 -95t-95.5 -39q-62 0 -114 62l-215 274l-215 -274 q-49 -62 -113 -62q-57 0 -96 39t-39 95z" />
<glyph unicode="y" horiz-adv-x="1144" d="M37 -262q0 51 36 85t89 34q6 0 14 -1t10 -1q67 0 113.5 30.5t79.5 98.5l37 82l-350 772q-19 40 -19 65q0 54 40 93.5t95 39.5q40 0 73 -21t48 -57l268 -600l275 600q15 35 48.5 56.5t74.5 21.5q54 0 93.5 -39.5t39.5 -93.5q0 -30 -17 -63l-446 -916q-82 -167 -180 -242 t-236 -75q-68 0 -117 22q-32 13 -50.5 43t-18.5 66z" />
<glyph unicode="z" horiz-adv-x="958" d="M39 117q0 27 10 48.5t37 51.5l467 563h-369q-51 0 -84.5 33t-33.5 84t33.5 84t84.5 33h621q51 0 85 -33t34 -82t-39 -94l-471 -572h409q51 0 85 -32.5t34 -83.5q0 -50 -34 -83.5t-85 -33.5h-667q-50 0 -83.5 34t-33.5 83z" />
<glyph unicode="&#xad;" d="M78 657q0 50 33 82.5t84 32.5h313q51 0 84 -32.5t33 -82.5t-33 -83t-84 -33h-313q-51 0 -84 33t-33 83z" />
<glyph unicode="&#x410;" horiz-adv-x="1355" d="M68 109q0 27 16 73l463 1100q39 94 131 94t131 -94l461 -1100q16 -39 16 -73q0 -56 -38.5 -95t-96.5 -39q-89 0 -131 99l-57 139h-572l-57 -139q-39 -99 -129 -99q-58 0 -97.5 39t-39.5 95zM481 440h389l-192 529z" />
<glyph unicode="&#x411;" horiz-adv-x="1271" d="M156 141v1069q0 62 40 102t101 40h635q56 0 92.5 -35.5t36.5 -89.5q0 -53 -37 -89t-92 -36h-500v-297h326q200 0 322 -109.5t122 -287.5q0 -182 -123 -295t-321 -113h-461q-61 0 -101 40t-40 101zM432 238h305q91 0 142 44.5t51 125.5q0 80 -51 125t-142 45h-305v-340z " />
<glyph unicode="&#x412;" horiz-adv-x="1269" d="M154 141v1069q0 62 40 102t101 40h338q189 0 308.5 -105t119.5 -272q0 -152 -100 -244q115 -40 178 -126.5t63 -207.5q0 -175 -125 -286t-321 -111h-461q-61 0 -101 40t-40 101zM422 238h313q91 0 142 44.5t51 125.5q0 80 -51 125t-142 45h-313v-340zM422 805h190 q82 0 129 42t47 114t-47 112.5t-129 40.5h-190v-309z" />
<glyph unicode="&#x413;" horiz-adv-x="1075" d="M156 117v1093q0 62 40 102t101 40h616q55 0 91 -35.5t36 -89.5q0 -53 -36.5 -89t-90.5 -36h-481v-985q0 -60 -39.5 -101t-99.5 -41q-58 0 -97.5 41t-39.5 101z" />
<glyph unicode="&#x414;" horiz-adv-x="1488" d="M43 109q0 57 36.5 96.5t92.5 44.5q127 138 186.5 350t59.5 528v82q0 61 40.5 101.5t100.5 40.5h557q61 0 101 -40t40 -102v-960h39q61 0 101.5 -40.5t40.5 -100.5v-281q0 -60 -39.5 -100.5t-98.5 -40.5q-60 0 -99.5 40.5t-39.5 100.5v172h-842v-172q0 -60 -39.5 -100.5 t-97.5 -40.5q-60 0 -99.5 40.5t-39.5 100.5v281zM457 250h524v852h-299q-6 -577 -225 -852z" />
<glyph unicode="&#x415;" horiz-adv-x="1171" d="M154 137v1077q0 59 39.5 98.5t97.5 39.5h661q55 0 91 -35.5t36 -89.5q0 -53 -36.5 -89t-90.5 -36h-522v-275h358q52 0 86.5 -33.5t34.5 -84.5q0 -50 -34.5 -83.5t-86.5 -33.5h-358v-342h547q55 0 91 -36t36 -89q0 -54 -36.5 -89.5t-90.5 -35.5h-686q-59 0 -98 39t-39 98z " />
<glyph unicode="&#x416;" horiz-adv-x="2076" d="M70 109q0 44 30 79l447 527l-402 442q-36 42 -36 90q0 54 36.5 91.5t87.5 37.5q59 0 107 -51l465 -516q39 -45 39 -92q0 -54 -39 -96l-490 -582q-55 -64 -116 -64q-52 0 -90.5 40.5t-38.5 93.5zM901 117v1118q0 60 39.5 100.5t97.5 40.5q60 0 100 -40.5t40 -100.5v-1118 q0 -60 -40 -101t-100 -41q-58 0 -97.5 41t-39.5 101zM1233 717q0 47 39 92l467 516q48 51 106 51q51 0 88 -37.5t37 -91.5q0 -47 -37 -90l-405 -440l450 -529q31 -42 31 -79q0 -53 -39 -93.5t-92 -40.5q-63 0 -115 64l-491 582q-39 48 -39 96z" />
<glyph unicode="&#x417;" horiz-adv-x="1204" d="M111 272q0 54 36.5 90.5t90.5 36.5q53 0 90 -43q119 -125 282 -125q107 0 174.5 50.5t67.5 132.5q0 73 -52.5 118.5t-137.5 45.5h-166q-50 0 -83.5 32.5t-33.5 81.5t33.5 81t83.5 32h108q78 0 126 43t48 113q0 72 -52.5 115.5t-137.5 43.5q-136 0 -236 -106 q-38 -41 -92 -41q-52 0 -88.5 36t-36.5 87q0 45 31 84q72 92 185 144t239 52q197 0 330 -114.5t133 -284.5q0 -164 -125 -262q95 -46 146.5 -128t51.5 -188q0 -184 -145.5 -304t-368.5 -120q-146 0 -267.5 56.5t-203.5 161.5q-30 40 -30 79z" />
<glyph unicode="&#x418;" horiz-adv-x="1478" d="M156 115v1120q0 60 39.5 100.5t97.5 40.5q60 0 99.5 -40.5t39.5 -100.5v-754l625 813q22 28 35.5 42.5t39.5 27t58 12.5q58 0 97.5 -40t39.5 -99v-1120q0 -60 -39.5 -101t-99.5 -41q-58 0 -97.5 41t-39.5 101v749l-643 -831q-48 -60 -115 -60q-57 0 -97 41t-40 99z" />
<glyph unicode="&#x41a;" horiz-adv-x="1355" d="M156 117v1118q0 61 39 101t100 40q58 0 97.5 -40.5t39.5 -100.5v-1118q0 -60 -39.5 -101t-97.5 -41q-60 0 -99.5 41t-39.5 101zM487 717q0 46 39 88l488 526q45 45 100 45q51 0 88 -37.5t37 -91.5q0 -48 -41 -92l-407 -440l452 -525q35 -41 35 -84q0 -53 -38.5 -92 t-90.5 -39q-62 0 -111 58l-514 592q-37 43 -37 92z" />
<glyph unicode="&#x41b;" horiz-adv-x="1353" d="M-39 100q0 93 90 125q143 50 207 256t64 621v108q0 62 40 102t101 40h596q61 0 101 -40t40 -102v-1093q0 -60 -39.5 -101t-97.5 -41q-60 0 -99.5 41t-39.5 101v985h-338q-4 -456 -91 -717t-264 -356q-73 -49 -145 -49q-56 0 -90.5 33t-34.5 87z" />
<glyph unicode="&#x41c;" horiz-adv-x="1630" d="M154 117v1116q0 62 38.5 102.5t96.5 40.5q44 0 77 -24t68 -82l381 -604l381 604q37 59 69 82.5t76 23.5q58 0 97 -40.5t39 -102.5v-1116q0 -60 -40 -101t-98 -41q-60 0 -99.5 41t-39.5 101v667l-254 -399q-30 -46 -60 -67t-71 -21q-75 0 -131 88l-254 403v-671 q0 -60 -39.5 -101t-97.5 -41q-60 0 -99.5 41t-39.5 101z" />
<glyph unicode="&#x41d;" horiz-adv-x="1458" d="M154 119v1114q0 62 39 102.5t100 40.5q60 0 98.5 -40.5t38.5 -102.5v-399h598v401q0 62 39 101.5t100 39.5q60 0 99 -40t39 -101v-1116q0 -61 -39.5 -102.5t-98.5 -41.5q-60 0 -99.5 41t-39.5 103v465h-598v-465q0 -61 -39 -102.5t-98 -41.5q-60 0 -99.5 41t-39.5 103z " />
<glyph unicode="&#x41e;" horiz-adv-x="1593" d="M78 676q0 193 95 354t259.5 253.5t362.5 92.5t364 -93t261.5 -254t95.5 -353q0 -144 -56.5 -274t-152.5 -223.5t-229.5 -148.5t-282.5 -55t-282 54.5t-228 148t-151 223.5t-56 275zM362 676q0 -195 122 -320t313 -125q189 0 311.5 125.5t122.5 319.5q0 193 -122.5 318.5 t-311.5 125.5q-191 0 -313 -124.5t-122 -319.5z" />
<glyph unicode="&#x41f;" horiz-adv-x="1413" d="M154 117v1093q0 62 40 102t101 40h823q60 0 101 -40.5t41 -101.5v-1093q0 -60 -40 -101t-100 -41q-58 0 -97.5 41t-39.5 101v985h-553v-985q0 -60 -39.5 -101t-97.5 -41q-60 0 -99.5 41t-39.5 101z" />
<glyph unicode="&#x420;" horiz-adv-x="1214" d="M154 117v1093q0 62 40 102t101 40h369q217 0 351 -121t134 -316q0 -193 -135.5 -315.5t-349.5 -122.5h-234v-360q0 -60 -39.5 -101t-97.5 -41q-60 0 -99.5 41t-39.5 101zM430 719h232q95 0 149.5 52.5t54.5 143.5q0 88 -54.5 140.5t-149.5 52.5h-232v-389z" />
<glyph unicode="&#x421;" horiz-adv-x="1474" d="M78 676q0 194 95 354.5t260.5 253t365.5 92.5q155 0 293 -62t229 -171q43 -49 43 -103q0 -51 -37.5 -88t-91.5 -37q-59 0 -107 54q-130 151 -329 151q-191 0 -314 -125.5t-123 -320.5q0 -193 123 -318t314 -125q193 0 327 152q50 53 109 53q53 0 90 -37t37 -88t-43 -102 q-90 -109 -228 -171.5t-294 -62.5q-150 0 -283.5 54.5t-229 148t-151 223.5t-55.5 275z" />
<glyph unicode="&#x422;" horiz-adv-x="1198" d="M12 1227q0 54 36.5 89.5t90.5 35.5h920q55 0 91 -35.5t36 -89.5q0 -53 -36.5 -89t-90.5 -36h-322v-985q0 -60 -39.5 -101t-99.5 -41q-58 0 -97.5 41t-39.5 101v985h-322q-54 0 -90.5 36t-36.5 89z" />
<glyph unicode="&#x423;" horiz-adv-x="1292" d="M90 1223q0 60 42 101.5t101 41.5q86 0 134 -88l311 -623l272 623q17 40 53 64t80 24q60 0 102 -42.5t42 -102.5q0 -29 -21 -76l-407 -871q-71 -152 -184 -225.5t-277 -73.5q-83 0 -141 25q-72 38 -72 111q0 54 36.5 88t94.5 34q3 0 16 -1t21 -1q90 0 144.5 30t88.5 95 l-415 789q-21 44 -21 78z" />
<glyph unicode="&#x424;" horiz-adv-x="1716" d="M78 688q0 255 174 409.5t467 157.5v70q0 61 39.5 101t99.5 40q59 0 98 -40t39 -101v-70q294 -1 467.5 -155t173.5 -412q0 -260 -174.5 -417t-466.5 -160v-82q0 -61 -39 -101.5t-98 -40.5q-60 0 -99.5 40.5t-39.5 101.5v82q-290 3 -465.5 161t-175.5 416zM350 680 q0 -155 97 -243t272 -89v672q-172 -1 -270.5 -92t-98.5 -248zM995 348q174 0 272.5 88t98.5 244q0 158 -99.5 249t-271.5 91v-672z" />
<glyph unicode="&#x425;" horiz-adv-x="1255" d="M80 111q0 44 39 100l342 477l-314 453q-38 55 -38 106q0 53 40 91t95 38q71 0 114 -61l271 -397l276 395q45 63 115 63q57 0 96 -38.5t39 -92.5q0 -52 -41 -110l-317 -447l342 -483q37 -53 37 -96q0 -54 -40.5 -94t-97.5 -40q-66 0 -110 60l-299 424l-301 -424 q-44 -60 -113 -60q-55 0 -95 40t-40 96z" />
<glyph unicode="&#x426;" horiz-adv-x="1486" d="M156 141v1094q0 60 39.5 100.5t97.5 40.5q60 0 99.5 -40.5t39.5 -100.5v-985h547v985q0 60 38.5 100.5t98.5 40.5t99.5 -40.5t39.5 -100.5v-985h37q61 0 101.5 -40.5t40.5 -100.5v-281q0 -60 -39.5 -100.5t-98.5 -40.5q-60 0 -99.5 40.5t-39.5 100.5v172h-860 q-61 0 -101 40t-40 101z" />
<glyph unicode="&#x427;" horiz-adv-x="1316" d="M78 969v266q0 60 39.5 100.5t99.5 40.5q58 0 97.5 -40.5t39.5 -100.5v-240q0 -149 82.5 -233t225.5 -84q109 0 227 43v514q0 60 38.5 100.5t98.5 40.5t99.5 -40.5t39.5 -100.5v-1118q0 -60 -39.5 -101t-99.5 -41q-58 0 -97.5 41t-39.5 101v340q-125 -33 -238 -33 q-263 0 -418 147.5t-155 397.5z" />
<glyph unicode="&#x428;" horiz-adv-x="2123" d="M156 141v1094q0 60 39.5 100.5t97.5 40.5q60 0 99.5 -40.5t39.5 -100.5v-985h494v985q0 60 39.5 100.5t97.5 40.5q60 0 99.5 -40.5t39.5 -100.5v-985h492v985q0 60 39.5 100.5t99.5 40.5q58 0 97.5 -40.5t39.5 -100.5v-1094q0 -61 -40 -101t-101 -40h-1532q-61 0 -101 40 t-40 101z" />
<glyph unicode="&#x429;" horiz-adv-x="2201" d="M156 141v1094q0 60 39.5 100.5t97.5 40.5q60 0 99.5 -40.5t39.5 -100.5v-985h494v985q0 60 39.5 100.5t97.5 40.5q60 0 99.5 -40.5t39.5 -100.5v-985h492v985q0 60 39.5 100.5t99.5 40.5q58 0 97.5 -40.5t39.5 -100.5v-985h39q61 0 101 -40.5t40 -100.5v-281 q0 -60 -39.5 -100.5t-97.5 -40.5q-60 0 -99.5 40.5t-39.5 100.5v172h-1577q-61 0 -101 40t-40 101z" />
<glyph unicode="&#x42a;" horiz-adv-x="1325" d="M-37 1227q0 54 36.5 89.5t92.5 35.5h242q60 0 100.5 -40.5t40.5 -101.5v-323h277q218 0 355.5 -124t137.5 -319q0 -199 -136 -321.5t-357 -122.5h-412q-62 0 -101.5 40t-39.5 101v961h-107q-55 0 -92 36t-37 89zM475 244h277q97 0 154 53.5t57 144.5q0 92 -57 147.5 t-154 55.5h-277v-401z" />
<glyph unicode="&#x42b;" horiz-adv-x="1865" d="M156 141v1094q0 60 38.5 100.5t98.5 40.5t99.5 -40.5t39.5 -100.5v-348h277q220 0 356.5 -124t136.5 -319q0 -197 -135.5 -320.5t-357.5 -123.5h-412q-61 0 -101 40t-40 101zM432 244h277q99 0 155 54t56 144q0 91 -56 147t-155 56h-277v-401zM1436 117v1118q0 61 39 101 t100 40q60 0 98.5 -40.5t38.5 -100.5v-1118q0 -61 -38.5 -101.5t-98.5 -40.5q-61 0 -100 40.5t-39 101.5z" />
<glyph unicode="&#x42c;" horiz-adv-x="1282" d="M156 141v1094q0 60 38.5 100.5t98.5 40.5t99.5 -40.5t39.5 -100.5v-348h277q220 0 356.5 -124t136.5 -319q0 -197 -135.5 -320.5t-357.5 -123.5h-412q-61 0 -101 40t-40 101zM432 244h277q99 0 155 54t56 144q0 91 -56 147t-155 56h-277v-401z" />
<glyph unicode="&#x42d;" horiz-adv-x="1474" d="M111 1040q0 54 43 103q91 109 229 171t293 62q200 0 365.5 -92.5t260.5 -253t95 -354.5q0 -145 -55.5 -275t-151 -223.5t-229 -148t-283.5 -54.5q-156 0 -294 62.5t-228 171.5q-43 51 -43 102t36.5 88t90.5 37q58 0 108 -53q134 -152 328 -152q168 0 286 99.5t144 261.5 h-498q-53 0 -87 33.5t-34 83.5q0 51 33.5 84.5t87.5 33.5h482q-43 134 -154 213.5t-260 79.5q-200 0 -330 -151q-48 -54 -106 -54q-54 0 -91.5 37t-37.5 88z" />
<glyph unicode="&#x42e;" horiz-adv-x="2166" d="M156 117v1118q0 60 38.5 100.5t98.5 40.5t99.5 -40.5t39.5 -100.5v-401h252q53 238 243.5 390t444.5 152q196 0 361 -93t260.5 -254t95.5 -353t-95.5 -353.5t-260.5 -254.5t-361 -93q-181 0 -333 79t-248 218t-117 312h-242v-467q0 -60 -39.5 -101t-99.5 -41 q-58 0 -97.5 41t-39.5 101zM940 676q0 -192 123 -318.5t309 -126.5q187 0 309.5 126.5t122.5 318.5q0 193 -122 318.5t-310 125.5q-187 0 -309.5 -125.5t-122.5 -318.5z" />
<glyph unicode="&#x42f;" horiz-adv-x="1302" d="M104 115q0 38 31 88l207 309q-90 62 -140 158.5t-50 214.5q0 209 145 338t377 129h336q61 0 101 -40t40 -102v-1093q0 -60 -39.5 -101t-99.5 -41q-58 0 -98 41t-40 101v299h-200q-26 0 -76 4l-250 -387q-38 -58 -108 -58q-56 0 -96 41t-40 99zM434 885 q0 -101 65.5 -163.5t170.5 -62.5h204v449h-204q-105 0 -170.5 -62t-65.5 -161z" />
<glyph unicode="&#x430;" horiz-adv-x="1116" d="M74 279q0 137 102.5 215.5t280.5 78.5h254v45q0 85 -49.5 132t-141.5 47q-106 0 -194 -76q-44 -33 -82 -33q-50 0 -84.5 33.5t-34.5 79.5q0 56 57 110q64 60 160 92.5t207 32.5q209 0 323.5 -113.5t114.5 -320.5v-487q0 -60 -38 -99t-95 -39q-50 0 -87 30.5t-46 76.5 q-115 -109 -297 -109q-156 0 -253 84.5t-97 219.5zM352 289q0 -51 39.5 -81t106.5 -30q91 0 152 57.5t61 143.5v12h-217q-142 0 -142 -102z" />
<glyph unicode="&#x431;" horiz-adv-x="1259" d="M111 575v95q0 349 143.5 539.5t470.5 275.5l174 45q63 16 80 16q49 0 84 -36t35 -87q0 -46 -29.5 -79t-83.5 -46l-186 -49q-197 -51 -292.5 -144.5t-107.5 -248.5q122 131 303 131q199 0 339.5 -147.5t140.5 -356.5q0 -143 -69 -258.5t-191.5 -181.5t-272.5 -66 q-244 0 -391 163t-147 435zM393 483q0 -106 74 -180t178 -74q107 0 180.5 74t73.5 180t-73.5 179t-180.5 73q-106 0 -179 -73t-73 -179z" />
<glyph unicode="&#x432;" horiz-adv-x="1136" d="M147 141v731q0 60 40.5 101t101.5 41h338q163 0 261.5 -77.5t98.5 -205.5q0 -114 -82 -190q74 -35 113 -95.5t39 -138.5q0 -135 -101.5 -221t-259.5 -86h-407q-62 0 -102 40t-40 101zM412 223h262q60 0 94.5 28.5t34.5 76.5q0 46 -34.5 72t-94.5 26h-262v-203zM412 621 h209q53 0 81.5 22.5t28.5 65.5q0 84 -110 84h-209v-172z" />
<glyph unicode="&#x433;" horiz-adv-x="931" d="M147 117v755q0 60 40.5 101t101.5 41h510q51 0 85 -33t34 -84t-34 -84t-85 -33h-375v-663q0 -60 -39.5 -101t-97.5 -41q-60 0 -100 41t-40 101z" />
<glyph unicode="&#x434;" horiz-adv-x="1361" d="M57 94q0 60 40.5 99.5t101.5 39.5h10q90 104 129 254t39 392v2q0 58 40 95.5t99 37.5h469q60 0 99.5 -41t39.5 -101v-639h41q60 0 100 -39.5t40 -99.5v-266q0 -61 -39.5 -101t-98.5 -40q-58 0 -97.5 40.5t-39.5 100.5v172h-696v-172q0 -61 -39 -101t-98 -40 q-60 0 -100 40.5t-40 100.5v266zM500 233h350v547h-199q-3 -380 -151 -547z" />
<glyph unicode="&#x435;" horiz-adv-x="1165" d="M80 506q0 226 151 378t375 152q207 0 344 -135t137 -340v-6q0 -64 -41.5 -102.5t-109.5 -38.5h-578q25 -96 99 -148.5t186 -52.5q119 0 211 59q32 19 59 19q47 0 80 -32t33 -79q0 -63 -70 -110q-143 -95 -321 -95q-118 0 -221 40.5t-176.5 111t-115.5 169t-42 210.5z M358 608h461q-3 91 -63 148t-156 57q-90 0 -154.5 -55t-87.5 -150z" />
<glyph unicode="&#x436;" horiz-adv-x="1730" d="M88 102q0 42 31 84l276 363l-245 268q-41 44 -41 96t35 86.5t89 36.5q60 3 101 -47l301 -342q47 -56 47 -100q0 -41 -41 -98l-328 -424q-33 -50 -98 -50q-54 0 -90.5 36.5t-36.5 90.5zM727 117v780q0 60 39.5 99.5t99.5 39.5q59 0 98.5 -39.5t39.5 -99.5v-780 q0 -61 -39.5 -101.5t-98.5 -40.5q-60 0 -99.5 41t-39.5 101zM1047 547q0 44 47 100l301 342q41 50 100 47q54 -2 89.5 -36.5t35.5 -86.5q0 -49 -41 -96l-248 -268l279 -363q30 -49 30 -84q0 -54 -36.5 -90.5t-90.5 -36.5q-60 0 -98 50l-328 424q-40 55 -40 98z" />
<glyph unicode="&#x437;" horiz-adv-x="1040" d="M92 186q0 50 34 83.5t85 33.5q36 0 72 -24q81 -66 219 -66q86 0 131 27.5t45 78.5q0 47 -38.5 73t-109.5 26h-98q-44 0 -74 29.5t-30 72.5q0 44 30 73.5t74 29.5h88q55 0 86 23.5t31 64.5q0 88 -150 88q-118 0 -200 -56q-39 -26 -74 -26q-49 0 -84 34.5t-35 84.5 q0 57 64 104q124 96 334 96q191 0 303 -80.5t112 -216.5q0 -132 -102 -217q68 -40 105.5 -103t37.5 -138q0 -138 -122.5 -222t-323.5 -84q-105 0 -197.5 29t-152.5 80q-60 45 -60 102z" />
<glyph unicode="&#x438;" horiz-adv-x="1247" d="M147 117v780q0 60 40 99.5t100 39.5q59 0 98 -39.5t39 -99.5v-451l416 523q56 67 123 67q59 0 98 -39.5t39 -99.5v-780q0 -60 -39.5 -101t-97.5 -41t-98 41t-40 101v444l-417 -518q-56 -68 -123 -68q-58 0 -98 41t-40 101z" />
<glyph unicode="&#x43a;" horiz-adv-x="1155" d="M147 117v780q0 60 40 99.5t100 39.5t98.5 -39.5t38.5 -99.5v-780q0 -60 -39.5 -101t-97.5 -41q-60 0 -100 41t-40 101zM469 547q0 47 49 102l322 346q41 44 94 41q54 -2 90.5 -37.5t36.5 -87.5q0 -53 -41 -94l-258 -272l285 -357q32 -40 32 -86q0 -53 -36.5 -90 t-90.5 -37q-63 0 -96 45l-346 429q-41 52 -41 98z" />
<glyph unicode="&#x43b;" horiz-adv-x="1210" d="M-8 109q0 31 13 54t26.5 33t44.5 29q59 31 97 87t62.5 171.5t24.5 288.5v100q0 60 40.5 101t100.5 41h521q60 0 100.5 -41t40.5 -101v-755q0 -60 -39.5 -101t-97.5 -41t-98 41t-40 101v663h-253v-92q0 -543 -340 -686q-41 -16 -78 -16q-52 0 -88.5 36t-36.5 87z" />
<glyph unicode="&#x43c;" horiz-adv-x="1429" d="M147 117v780q0 59 40 99t100 40q65 0 112 -57l316 -414l315 414q47 57 113 57q60 0 99.5 -40t39.5 -99v-780q0 -60 -39.5 -101t-99.5 -41q-58 0 -97.5 41t-39.5 101v399l-207 -262q-30 -35 -84 -35t-84 35l-207 262v-399q0 -60 -39.5 -101t-97.5 -41q-60 0 -100 41 t-40 101z" />
<glyph unicode="&#x43d;" horiz-adv-x="1228" d="M147 117v780q0 60 40 99.5t100 39.5q59 0 98 -39.5t39 -99.5v-254h383v254q0 60 38.5 99.5t98.5 39.5q59 0 98 -39.5t39 -99.5v-780q0 -60 -39 -100t-98 -40t-98 40t-39 100v291h-383v-291q0 -60 -39 -100t-98 -40q-60 0 -100 40t-40 100z" />
<glyph unicode="&#x43e;" horiz-adv-x="1245" d="M80 508q0 146 71.5 267.5t196.5 191t275 69.5q149 0 274 -70t197.5 -191.5t72.5 -266.5t-72.5 -267.5t-198 -193t-275.5 -70.5q-149 0 -273.5 70.5t-196 192.5t-71.5 268zM360 506q0 -120 74.5 -197.5t188.5 -77.5q113 0 187.5 78.5t74.5 196.5q0 120 -74.5 199 t-187.5 79q-114 0 -188.5 -78.5t-74.5 -199.5z" />
<glyph unicode="&#x43f;" horiz-adv-x="1214" d="M147 115v759q0 60 40 100t100 40h641q60 0 99.5 -40t39.5 -100v-759q0 -60 -39.5 -100t-99.5 -40q-59 0 -98 40t-39 100v665h-367v-665q0 -60 -39.5 -100t-99.5 -40q-59 0 -98.5 40t-39.5 100z" />
<glyph unicode="&#x440;" horiz-adv-x="1298" d="M147 -254v1155q0 58 39.5 97.5t98.5 39.5q55 0 92.5 -37t40.5 -94q110 129 309 129q214 0 353 -149t139 -379q0 -231 -139.5 -382t-352.5 -151q-193 0 -303 123v-352q0 -60 -39 -99.5t-98 -39.5q-60 0 -100 39.5t-40 99.5zM420 508q0 -125 71 -203t185 -78t188 79t74 200 q0 123 -73.5 201.5t-188.5 78.5t-185.5 -76.5t-70.5 -201.5z" />
<glyph unicode="&#x441;" horiz-adv-x="1130" d="M80 508q0 146 71.5 267.5t196.5 191t275 69.5q128 0 239 -55t170 -145q25 -40 25 -74q0 -51 -36 -87t-87 -36q-59 0 -94 43q-85 102 -213 102q-117 0 -192 -77.5t-75 -198.5q0 -123 75 -201t192 -78q120 0 213 103q38 43 94 43q51 0 87 -36t36 -87q0 -34 -23 -70 q-64 -98 -170.5 -152.5t-240.5 -54.5q-228 0 -385.5 155t-157.5 378z" />
<glyph unicode="&#x442;" horiz-adv-x="960" d="M6 899q0 50 34 83.5t85 33.5h711q52 0 85 -33.5t33 -83.5q0 -51 -33 -84t-85 -33h-220v-665q0 -61 -38.5 -101.5t-98.5 -40.5q-58 0 -97.5 41t-39.5 101v665h-217q-51 0 -85 33t-34 84z" />
<glyph unicode="&#x443;" horiz-adv-x="1144" d="M37 -262q0 51 36 85t89 34q6 0 14 -1t10 -1q67 0 113.5 30.5t79.5 98.5l37 82l-350 772q-19 40 -19 65q0 54 40 93.5t95 39.5q40 0 73 -21t48 -57l268 -600l275 600q15 35 48.5 56.5t74.5 21.5q54 0 93.5 -39.5t39.5 -93.5q0 -30 -17 -63l-446 -916q-82 -167 -180 -242 t-236 -75q-68 0 -117 22q-32 13 -50.5 43t-18.5 66z" />
<glyph unicode="&#x444;" horiz-adv-x="1609" d="M80 508q0 236 161.5 380.5t424.5 147.5v383q0 60 39.5 101t99.5 41q59 0 98 -40.5t39 -101.5v-383q266 -3 427 -147.5t161 -380.5t-162 -383t-426 -150v-227q0 -61 -39 -101t-98 -40q-60 0 -99.5 40.5t-39.5 100.5v227q-263 3 -424.5 150t-161.5 383zM350 506 q0 -138 85.5 -216.5t234.5 -78.5h4v590h-4q-149 0 -234.5 -78.5t-85.5 -216.5zM934 211h4q151 0 236.5 78.5t85.5 216.5q0 137 -86 216t-236 79h-4v-590z" />
<glyph unicode="&#x445;" horiz-adv-x="1087" d="M80 109q0 47 43 102l246 305l-222 285q-45 61 -45 102q0 56 39.5 94.5t96.5 38.5q66 0 110 -59l197 -254l200 254q47 59 113 59q56 0 94.5 -39t38.5 -94q0 -49 -45 -102l-225 -283l244 -307q41 -52 41 -102q0 -56 -38.5 -95t-95.5 -39q-62 0 -114 62l-215 274l-215 -274 q-49 -62 -113 -62q-57 0 -96 39t-39 95z" />
<glyph unicode="&#x446;" horiz-adv-x="1277" d="M147 141v756q0 60 40 99.5t100 39.5q58 0 96.5 -39.5t38.5 -99.5v-664h346v664q0 60 38.5 99.5t98.5 39.5t98.5 -39.5t38.5 -99.5v-664h39q60 0 100 -39.5t40 -99.5v-266q0 -60 -39 -100.5t-99 -40.5q-58 0 -97.5 40.5t-39.5 100.5v172h-657q-62 0 -102 40t-40 101z" />
<glyph unicode="&#x447;" horiz-adv-x="1159" d="M80 797v100q0 60 38.5 99.5t98.5 39.5q59 0 98 -39.5t39 -99.5v-82q0 -117 58.5 -179.5t167.5 -62.5q75 0 155 25v299q0 60 39.5 99.5t99.5 39.5q59 0 98.5 -39.5t39.5 -99.5v-780q0 -61 -39.5 -101.5t-98.5 -40.5q-60 0 -99.5 41t-39.5 101v229q-86 -27 -178 -27 q-215 0 -346 131.5t-131 346.5z" />
<glyph unicode="&#x448;" horiz-adv-x="1804" d="M147 141v756q0 60 40 99.5t100 39.5q58 0 96.5 -39.5t38.5 -99.5v-664h342v664q0 60 39.5 99.5t99.5 39.5q58 0 96.5 -39.5t38.5 -99.5v-664h342v664q0 60 40 99.5t100 39.5t97.5 -39.5t37.5 -99.5v-756q0 -61 -39.5 -101t-99.5 -40h-1227q-62 0 -102 40t-40 101z" />
<glyph unicode="&#x449;" horiz-adv-x="1892" d="M147 141v756q0 60 40 99.5t100 39.5q58 0 96.5 -39.5t38.5 -99.5v-664h342v664q0 60 39.5 99.5t99.5 39.5q58 0 96.5 -39.5t38.5 -99.5v-664h342v664q0 60 40 99.5t100 39.5t97.5 -39.5t37.5 -99.5v-664h39q60 0 100.5 -39.5t40.5 -99.5v-266q0 -60 -38.5 -100.5 t-98.5 -40.5t-99.5 40.5t-39.5 100.5v172h-1270q-62 0 -102 40t-40 101z" />
<glyph unicode="&#x44a;" horiz-adv-x="1191" d="M-16 897q0 51 33.5 84t84.5 33h240q60 0 100.5 -41t40.5 -101v-116h201q191 0 307.5 -104t116.5 -273q0 -172 -116 -275.5t-308 -103.5h-336q-60 0 -100.5 40t-40.5 101v639h-105q-51 0 -84.5 33t-33.5 84zM483 233h179q76 0 120.5 38.5t44.5 103.5t-45 105t-120 40h-179 v-287z" />
<glyph unicode="&#x44b;" horiz-adv-x="1671" d="M147 141v756q0 60 39.5 99.5t100.5 39.5q59 0 98 -39.5t39 -99.5v-141h199q188 0 307 -101t119 -276q0 -176 -119 -277.5t-307 -101.5h-334q-62 0 -102 40t-40 101zM424 233h180q73 0 118.5 37.5t45.5 104.5q0 68 -46 106.5t-120 38.5h-178v-287zM1229 117v780 q0 60 39.5 99.5t99.5 39.5q59 0 98 -39.5t39 -99.5v-780q0 -60 -39.5 -101t-99.5 -41q-58 0 -97.5 41t-39.5 101z" />
<glyph unicode="&#x44c;" horiz-adv-x="1132" d="M147 141v756q0 60 39.5 99.5t100.5 39.5q59 0 98 -39.5t39 -99.5v-141h199q188 0 307 -101t119 -276q0 -176 -119 -277.5t-307 -101.5h-334q-62 0 -102 40t-40 101zM424 233h180q73 0 118.5 37.5t45.5 104.5q0 68 -46 106.5t-120 38.5h-178v-287z" />
<glyph unicode="&#x44d;" horiz-adv-x="1142" d="M82 252q0 51 33.5 84t83.5 33q42 0 75 -33q33 -31 48 -43.5t47 -34t66.5 -30.5t76.5 -9q92 0 163 54t99 141l-295 2q-43 0 -71.5 27.5t-28.5 70.5q0 41 28.5 68.5t71.5 27.5h291q-28 81 -98.5 133t-159.5 52q-42 0 -76.5 -9t-66 -30.5t-48 -35.5t-47.5 -44 q-31 -31 -75 -31q-50 0 -83.5 33t-33.5 84q0 34 22 69q62 94 167 149.5t245 55.5q150 0 275 -69t197.5 -190.5t72.5 -268.5q0 -148 -72.5 -270.5t-198 -192.5t-274.5 -70q-141 0 -246 56t-166 151q-22 33 -22 70z" />
<glyph unicode="&#x44e;" horiz-adv-x="1769" d="M147 117v780q0 60 39.5 99.5t100.5 39.5q59 0 98 -39.5t39 -99.5v-254h207q45 173 186.5 283t327.5 110q149 0 275 -70t199 -191.5t73 -266.5q0 -146 -73 -268.5t-199 -193.5t-275 -71q-197 0 -342.5 122t-179.5 311h-199v-291q0 -61 -39 -101.5t-98 -40.5q-60 0 -100 41 t-40 101zM885 506q0 -119 74 -198t188 -79q113 0 187.5 79.5t74.5 199.5q0 119 -75 197.5t-187 78.5q-114 0 -188 -79t-74 -199z" />
<glyph unicode="&#x44f;" horiz-adv-x="1181" d="M88 115q0 47 49 100l123 137q-127 108 -127 283q0 170 117 274.5t309 104.5h334q61 0 101 -41t40 -101v-755q0 -60 -39.5 -101t-97.5 -41q-60 0 -99.5 41t-39.5 101v141h-199h-35l-192 -231q-44 -52 -107 -52q-57 0 -97 41.5t-40 98.5zM414 639q0 -66 45.5 -106.5 t120.5 -40.5h178v288h-178q-76 0 -121 -38t-45 -103z" />
<glyph unicode="&#x2000;" horiz-adv-x="780" />
<glyph unicode="&#x2001;" horiz-adv-x="1561" />
<glyph unicode="&#x2002;" horiz-adv-x="780" />
<glyph unicode="&#x2003;" horiz-adv-x="1561" />
<glyph unicode="&#x2004;" horiz-adv-x="520" />
<glyph unicode="&#x2005;" horiz-adv-x="390" />
<glyph unicode="&#x2006;" horiz-adv-x="260" />
<glyph unicode="&#x2007;" horiz-adv-x="260" />
<glyph unicode="&#x2008;" horiz-adv-x="195" />
<glyph unicode="&#x2009;" horiz-adv-x="312" />
<glyph unicode="&#x200a;" horiz-adv-x="86" />
<glyph unicode="&#x2010;" d="M78 657q0 50 33 82.5t84 32.5h313q51 0 84 -32.5t33 -82.5t-33 -83t-84 -33h-313q-51 0 -84 33t-33 83z" />
<glyph unicode="&#x2011;" d="M78 657q0 50 33 82.5t84 32.5h313q51 0 84 -32.5t33 -82.5t-33 -83t-84 -33h-313q-51 0 -84 33t-33 83z" />
<glyph unicode="&#x2012;" d="M78 657q0 50 33 82.5t84 32.5h313q51 0 84 -32.5t33 -82.5t-33 -83t-84 -33h-313q-51 0 -84 33t-33 83z" />
<glyph unicode="&#x2013;" horiz-adv-x="1177" d="M78 657q0 50 62 82.5t157 32.5h586q95 0 157 -32.5t62 -82.5t-62 -83t-157 -33h-586q-95 0 -157 33t-62 83z" />
<glyph unicode="&#x2014;" horiz-adv-x="2201" d="M78 657q0 50 123.5 82.5t314.5 32.5h1172q191 0 314.5 -32.5t123.5 -82.5t-123.5 -83t-314.5 -33h-1172q-191 0 -314.5 33t-123.5 83z" />
<glyph unicode="&#x202f;" horiz-adv-x="312" />
<glyph unicode="&#x205f;" horiz-adv-x="390" />
<glyph unicode="&#x25fc;" horiz-adv-x="1034" d="M0 0v1034h1034v-1034h-1034z" />
</font>
</defs>
</svg>
